# Blender v3.6.0 OBJ File: 'Banca de paradero.blend'
# www.blender.org
mtllib Banca .mtl
o Cube.001_Cube.002
v 1.269422 0.010000 -0.260034
v 1.269422 0.010000 0.131928
v 1.269422 -0.010000 -0.260034
v 1.269422 -0.010000 0.131928
v 0.269422 0.010000 -0.260034
v 0.269422 0.010000 0.131928
v 0.269422 -0.010000 -0.260034
v 0.269422 -0.010000 0.131928
vt 0.625000 0.500000
vt 0.625000 0.750000
vt 0.875000 0.750000
vt 0.875000 0.500000
vt 0.375000 0.750000
vt 0.375000 1.000000
vt 0.625000 1.000000
vt 0.375000 0.000000
vt 0.375000 0.250000
vt 0.625000 0.250000
vt 0.625000 0.000000
vt 0.125000 0.500000
vt 0.125000 0.750000
vt 0.375000 0.500000
vn 0.0000 0.0000 -1.0000
vn 0.0000 -1.0000 -0.0000
vn -1.0000 0.0000 0.0000
vn 0.0000 0.0000 1.0000
vn 1.0000 0.0000 0.0000
vn 0.0000 1.0000 0.0000
g Cube.001_Cube.002_Pavimento
usemtl Pavimento
s off
f 1/1/1 3/2/1 7/3/1 5/4/1
f 4/5/2 8/6/2 7/7/2 3/2/2
f 8/8/3 6/9/3 5/10/3 7/11/3
f 6/12/4 8/13/4 4/5/4 2/14/4
f 2/14/5 4/5/5 3/2/5 1/1/5
f 6/9/6 2/14/6 1/1/6 5/10/6
o Cube_Cube.004
v 0.368250 0.007438 0.017350
v 0.368250 0.209001 0.017350
v 0.368250 0.007438 -0.014228
v 0.368250 0.209001 -0.014228
v 0.399828 0.007438 0.017350
v 0.399828 0.209001 0.017350
v 0.399828 0.007438 -0.014228
v 0.399828 0.209001 -0.014228
v 0.368250 0.183105 -0.014228
v 0.399828 0.183067 -0.014228
v 0.368250 0.209001 -0.231547
v 0.399828 0.209001 -0.231547
v 0.368250 0.183105 -0.231547
v 0.399828 0.183067 -0.231547
v 0.368250 0.209001 -0.200010
v 0.399828 0.209001 -0.201246
v 0.374847 0.343624 -0.225088
v 0.393231 0.343624 -0.225088
v 0.374847 0.343624 -0.206727
v 0.393231 0.343624 -0.207447
v 0.380896 0.425796 -0.219165
v 0.387182 0.425796 -0.219165
v 0.380896 0.425796 -0.212887
v 0.387182 0.425796 -0.213133
v 0.399828 0.183067 -0.194888
v 0.368250 0.183105 -0.200451
v 0.399828 0.183067 -0.231547
v 0.368250 0.183105 -0.231547
v 0.399828 0.183067 -0.194888
v 0.368250 0.183105 -0.200451
v 0.396421 0.004303 -0.228121
v 0.371230 0.004333 -0.228121
v 0.396421 0.004303 -0.198877
v 0.371230 0.004333 -0.203315
vt 0.375000 0.000000
vt 0.625000 0.000000
vt 0.625000 0.250000
vt 0.592881 0.250000
vt 0.375000 0.250000
vt 0.592835 0.500000
vt 0.375000 0.500000
vt 0.625000 0.500000
vt 0.625000 0.750000
vt 0.375000 0.750000
vt 0.625000 1.000000
vt 0.375000 1.000000
vt 0.125000 0.500000
vt 0.125000 0.750000
vt 0.875000 0.500000
vt 0.875000 0.750000
vt 0.592835 0.500000
vt 0.592881 0.250000
vt 0.625000 0.250000
vt 0.625000 0.500000
vt 0.592835 0.500000
vt 0.625000 0.500000
vt 0.875000 0.500000
vt 0.592881 0.250000
vt 0.625000 0.250000
vt 0.625000 0.500000
vt 0.625000 0.500000
vt 0.625000 0.500000
vt 0.625000 0.500000
vt 0.875000 0.500000
vt 0.625000 0.250000
vt 0.625000 0.250000
vt 0.875000 0.500000
vt 0.875000 0.500000
vt 0.625000 0.250000
vt 0.625000 0.250000
vt 0.592881 0.250000
vt 0.592881 0.250000
vt 0.592881 0.250000
vt 0.592881 0.250000
vt 0.592835 0.500000
vt 0.592835 0.500000
vt 0.592835 0.500000
vt 0.592835 0.500000
vn -1.0000 0.0000 0.0000
vn 0.0000 0.0000 -1.0000
vn 1.0000 0.0000 0.0000
vn 0.0000 0.0000 1.0000
vn 0.0000 -1.0000 0.0000
vn 0.0000 1.0000 0.0000
vn -0.0012 -1.0000 0.0000
vn 0.9973 0.0734 0.0000
vn 0.0391 0.0479 0.9981
vn -0.9988 0.0489 0.0000
vn 0.0000 0.0479 -0.9989
vn 0.9988 0.0489 0.0000
vn 0.0000 0.0719 -0.9974
vn 0.0390 0.0718 0.9967
vn -0.9973 0.0734 0.0000
vn -0.9999 -0.0167 0.0000
vn -0.0000 -0.0192 -0.9998
vn -0.1735 -0.0187 0.9847
vn 0.9998 -0.0191 0.0000
g Cube_Cube.004_Metal
usemtl Metal
s off
f 9/15/7 10/16/7 12/17/7 17/18/7 11/19/7
f 11/19/8 17/18/8 18/20/8 15/21/8
f 15/21/9 18/20/9 16/22/9 14/23/9 13/24/9
f 13/24/10 14/23/10 10/25/10 9/26/10
f 11/27/11 15/21/11 13/24/11 9/28/11
f 16/22/12 12/29/12 10/30/12 14/23/12
f 22/31/8 21/32/8 19/33/8 20/34/8
f 16/22/9 18/20/9 33/35/9 22/31/9 20/34/9 24/36/9
f 12/29/12 16/22/12 24/36/12 23/37/12
f 18/20/13 17/18/13 34/38/13 33/35/13
f 17/18/7 12/17/7 23/39/7 19/33/7 21/32/7 34/38/7
f 28/40/14 26/41/14 30/42/14 32/43/14
f 23/37/15 24/36/15 28/40/15 27/44/15
f 19/33/16 23/39/16 27/45/16 25/46/16
f 20/34/17 19/33/17 25/46/17 26/41/17
f 24/36/18 20/34/18 26/41/18 28/40/18
f 31/47/12 32/43/12 30/42/12 29/48/12
f 26/41/19 25/46/19 29/49/19 30/42/19
f 27/44/20 28/40/20 32/43/20 31/47/20
f 25/46/21 27/45/21 31/50/21 29/49/21
f 38/51/22 36/52/22 40/53/22 42/54/22
f 34/38/10 21/32/10 36/52/10 38/51/10
f 33/35/10 34/38/10 38/51/10 37/55/10
f 21/32/10 22/31/10 35/56/10 36/52/10
f 22/31/10 33/35/10 37/55/10 35/56/10
f 41/57/13 42/54/13 40/53/13 39/58/13
f 36/52/23 35/56/23 39/58/23 40/53/23
f 37/55/24 38/51/24 42/54/24 41/57/24
f 35/56/25 37/55/25 41/57/25 39/58/25
o Cube.003_Cube.005
v 1.133244 0.007438 0.017350
v 1.133244 0.209001 0.017350
v 1.133244 0.007438 -0.014228
v 1.133244 0.209001 -0.014228
v 1.164822 0.007438 0.017350
v 1.164822 0.209001 0.017350
v 1.164822 0.007438 -0.014228
v 1.164822 0.209001 -0.014228
v 1.133244 0.209001 0.017350
v 1.133244 0.209001 -0.014228
v 1.164822 0.209001 -0.014228
v 1.164822 0.209001 0.017350
v 1.133244 0.178416 -0.014228
v 1.164822 0.179213 -0.014228
v 1.136627 0.205767 -0.230209
v 1.161439 0.205767 -0.230209
v 1.136627 0.181735 -0.230209
v 1.161439 0.182361 -0.230209
v 1.161925 0.206231 -0.199199
v 1.136181 0.206193 -0.201764
v 1.140789 0.332164 -0.227118
v 1.157284 0.332164 -0.227118
v 1.140493 0.332447 -0.208208
v 1.157607 0.332472 -0.206503
v 1.144856 0.429350 -0.223704
v 1.153224 0.429350 -0.223704
v 1.144705 0.429494 -0.214110
v 1.153388 0.429507 -0.213245
v 1.161875 0.181955 -0.202382
v 1.136165 0.181281 -0.200682
v 1.161439 0.182361 -0.230209
v 1.136627 0.181735 -0.230209
v 1.161875 0.181955 -0.202382
v 1.136165 0.181281 -0.200682
v 1.165888 0.006069 -0.232849
v 1.141076 0.005443 -0.232849
v 1.166324 0.005664 -0.205021
v 1.140613 0.004990 -0.203322
v 1.165888 0.006069 -0.232849
v 1.141076 0.005443 -0.232849
v 1.166324 0.005664 -0.205021
v 1.140613 0.004990 -0.203322
vt 0.375000 0.000000
vt 0.625000 0.000000
vt 0.625000 0.250000
vt 0.587065 0.250000
vt 0.375000 0.250000
vt 0.588054 0.500000
vt 0.375000 0.500000
vt 0.625000 0.500000
vt 0.625000 0.750000
vt 0.375000 0.750000
vt 0.625000 1.000000
vt 0.375000 1.000000
vt 0.125000 0.500000
vt 0.125000 0.750000
vt 0.625000 0.500000
vt 0.625000 0.750000
vt 0.875000 0.500000
vt 0.875000 0.750000
vt 0.625000 0.000000
vt 0.625000 0.250000
vt 0.625000 1.000000
vt 0.588054 0.500000
vt 0.588054 0.500000
vt 0.625000 0.500000
vt 0.625000 0.500000
vt 0.587065 0.250000
vt 0.625000 0.250000
vt 0.587065 0.250000
vt 0.625000 0.250000
vt 0.625000 0.500000
vt 0.625000 0.250000
vt 0.625000 0.500000
vt 0.625000 0.500000
vt 0.625000 0.500000
vt 0.625000 0.250000
vt 0.625000 0.250000
vt 0.625000 0.250000
vt 0.587065 0.250000
vt 0.587065 0.250000
vt 0.588054 0.500000
vt 0.588054 0.500000
vt 0.587065 0.250000
vt 0.588054 0.500000
vt 0.588054 0.500000
vt 0.587065 0.250000
vt 0.587065 0.250000
vt 0.588054 0.500000
vt 0.587065 0.250000
vt 0.588054 0.500000
vn -1.0000 0.0000 0.0000
vn -0.0000 0.0000 -1.0000
vn 1.0000 0.0000 0.0000
vn 0.0000 0.0000 1.0000
vn 0.0000 -1.0000 0.0000
vn 0.0000 1.0000 0.0000
vn 0.9999 -0.0000 -0.0157
vn 0.0252 -0.9996 -0.0150
vn -0.9999 0.0000 -0.0157
vn 0.0000 0.9999 -0.0150
vn -0.0991 0.0541 0.9936
vn 0.9990 0.0423 -0.0163
vn 0.9993 0.0332 -0.0162
vn 0.0000 0.0244 -0.9997
vn -0.9993 0.0333 -0.0162
vn 0.0000 0.0351 -0.9994
vn -0.0990 0.0647 0.9930
vn -0.9990 0.0424 -0.0163
vn -0.0004 0.0150 -0.9999
vn 0.0663 -0.0133 0.9977
vn 0.9996 0.0255 -0.0153
vn -0.9996 -0.0250 -0.0160
g Cube.003_Cube.005_Metal
usemtl Metal
s off
f 43/59/26 44/60/26 46/61/26 55/62/26 45/63/26
f 45/63/27 55/62/27 56/64/27 49/65/27
f 49/65/28 56/64/28 50/66/28 48/67/28 47/68/28
f 47/68/29 48/67/29 44/69/29 43/70/29
f 45/71/30 49/65/30 47/68/30 43/72/30
f 48/67/29 50/66/29 53/73/29 54/74/29
f 53/73/31 52/75/31 51/76/31 54/74/31
f 46/61/29 44/60/29 51/77/29 52/78/29
f 44/69/29 48/67/29 54/74/29 51/79/29
f 50/66/29 46/61/29 52/78/29 53/73/29
f 50/66/32 56/64/32 71/80/32 60/81/32 58/82/32 61/83/32
f 60/81/27 59/84/27 57/85/27 58/82/27
f 56/64/33 55/62/33 72/86/33 71/80/33
f 55/62/34 46/61/34 62/87/34 57/85/34 59/84/34 72/86/34
f 46/61/35 50/66/35 61/83/35 62/87/35
f 62/87/36 61/83/36 66/88/36 65/89/36
f 66/88/37 64/90/37 68/91/37 70/92/37
f 61/83/38 58/82/38 64/90/38 66/88/38
f 58/82/39 57/85/39 63/93/39 64/90/39
f 57/85/40 62/87/40 65/89/40 63/93/40
f 69/94/35 70/92/35 68/91/35 67/95/35
f 64/90/41 63/93/41 67/95/41 68/91/41
f 65/89/42 66/88/42 70/92/42 69/94/42
f 63/93/43 65/89/43 69/94/43 67/95/43
f 72/86/29 59/84/29 74/96/29 76/97/29
f 74/96/44 73/98/44 77/99/44 78/100/44
f 60/81/29 71/80/29 75/101/29 73/98/29
f 71/80/29 72/86/29 76/97/29 75/101/29
f 59/84/29 60/81/29 73/98/29 74/96/29
f 79/102/29 80/103/29 84/104/29 83/105/29
f 75/101/45 76/97/45 80/103/45 79/102/45
f 73/98/46 75/101/46 79/102/46 77/99/46
f 76/97/47 74/96/47 78/100/47 80/103/47
f 83/105/33 84/104/33 82/106/33 81/107/33
f 77/99/29 79/102/29 83/105/29 81/107/29
f 80/103/29 78/100/29 82/106/29 84/104/29
f 78/100/29 77/99/29 81/107/29 82/106/29
o Cube.004_Cube.006
v 0.271020 0.206926 0.050000
v 0.271020 0.212926 0.050000
v 0.271020 0.206926 -0.050000
v 0.271020 0.212926 -0.050000
v 1.271020 0.206926 0.050000
v 1.271020 0.212926 0.050000
v 1.271020 0.206926 -0.050000
v 1.271020 0.212926 -0.050000
vt 0.375000 0.000000
vt 0.625000 0.000000
vt 0.625000 0.250000
vt 0.375000 0.250000
vt 0.625000 0.500000
vt 0.375000 0.500000
vt 0.625000 0.750000
vt 0.375000 0.750000
vt 0.625000 1.000000
vt 0.375000 1.000000
vt 0.125000 0.500000
vt 0.125000 0.750000
vt 0.875000 0.500000
vt 0.875000 0.750000
vn -1.0000 0.0000 0.0000
vn 0.0000 0.0000 -1.0000
vn 1.0000 0.0000 0.0000
vn 0.0000 0.0000 1.0000
vn 0.0000 -1.0000 0.0000
vn 0.0000 1.0000 0.0000
g Cube.004_Cube.006_Madera
usemtl Madera
s off
f 85/108/48 86/109/48 88/110/48 87/111/48
f 87/111/49 88/110/49 92/112/49 91/113/49
f 91/113/50 92/112/50 90/114/50 89/115/50
f 89/115/51 90/114/51 86/116/51 85/117/51
f 87/118/52 91/113/52 89/115/52 85/119/52
f 92/112/53 88/120/53 86/121/53 90/114/53
o Cube.005_Cube.007
v 0.271020 0.206926 -0.080712
v 0.271020 0.212926 -0.080712
v 0.271020 0.206926 -0.180712
v 0.271020 0.212926 -0.180712
v 1.271020 0.206926 -0.080712
v 1.271020 0.212926 -0.080712
v 1.271020 0.206926 -0.180712
v 1.271020 0.212926 -0.180712
vt 0.375000 0.000000
vt 0.625000 0.000000
vt 0.625000 0.250000
vt 0.375000 0.250000
vt 0.625000 0.500000
vt 0.375000 0.500000
vt 0.625000 0.750000
vt 0.375000 0.750000
vt 0.625000 1.000000
vt 0.375000 1.000000
vt 0.125000 0.500000
vt 0.125000 0.750000
vt 0.875000 0.500000
vt 0.875000 0.750000
vn -1.0000 0.0000 0.0000
vn 0.0000 0.0000 -1.0000
vn 1.0000 0.0000 0.0000
vn 0.0000 0.0000 1.0000
vn 0.0000 -1.0000 0.0000
vn 0.0000 1.0000 0.0000
g Cube.005_Cube.007_Madera
usemtl Madera
s off
f 93/122/54 94/123/54 96/124/54 95/125/54
f 95/125/55 96/124/55 100/126/55 99/127/55
f 99/127/56 100/126/56 98/128/56 97/129/56
f 97/129/57 98/128/57 94/130/57 93/131/57
f 95/132/58 99/127/58 97/129/58 93/133/58
f 100/126/59 96/134/59 94/135/59 98/128/59
o Cube.006_Cube.008
v 0.271020 0.229201 -0.201680
v 0.271020 0.229592 -0.195693
v 0.271020 0.328989 -0.208196
v 0.271020 0.329380 -0.202209
v 1.271020 0.229201 -0.201680
v 1.271020 0.229592 -0.195693
v 1.271020 0.328989 -0.208196
v 1.271020 0.329380 -0.202209
vt 0.375000 0.000000
vt 0.625000 0.000000
vt 0.625000 0.250000
vt 0.375000 0.250000
vt 0.625000 0.500000
vt 0.375000 0.500000
vt 0.625000 0.750000
vt 0.375000 0.750000
vt 0.625000 1.000000
vt 0.375000 1.000000
vt 0.125000 0.500000
vt 0.125000 0.750000
vt 0.875000 0.500000
vt 0.875000 0.750000
vn -1.0000 0.0000 0.0000
vn 0.0000 0.9979 -0.0652
vn 1.0000 0.0000 0.0000
vn 0.0000 -0.9979 0.0652
vn 0.0000 -0.0652 -0.9979
vn 0.0000 0.0652 0.9979
g Cube.006_Cube.008_Madera
usemtl Madera
s off
f 101/136/60 102/137/60 104/138/60 103/139/60
f 103/139/61 104/138/61 108/140/61 107/141/61
f 107/141/62 108/140/62 106/142/62 105/143/62
f 105/143/63 106/142/63 102/144/63 101/145/63
f 103/146/64 107/141/64 105/143/64 101/147/64
f 108/140/65 104/148/65 102/149/65 106/142/65
o Cube.007_Cube.009
v 0.271020 0.354670 -0.209690
v 0.271020 0.355061 -0.203703
v 0.271020 0.454457 -0.216206
v 0.271020 0.454848 -0.210218
v 1.271020 0.354670 -0.209690
v 1.271020 0.355061 -0.203703
v 1.271020 0.454457 -0.216206
v 1.271020 0.454848 -0.210218
vt 0.375000 0.000000
vt 0.625000 0.000000
vt 0.625000 0.250000
vt 0.375000 0.250000
vt 0.625000 0.500000
vt 0.375000 0.500000
vt 0.625000 0.750000
vt 0.375000 0.750000
vt 0.625000 1.000000
vt 0.375000 1.000000
vt 0.125000 0.500000
vt 0.125000 0.750000
vt 0.875000 0.500000
vt 0.875000 0.750000
vn -1.0000 0.0000 0.0000
vn 0.0000 0.9979 -0.0652
vn 1.0000 0.0000 0.0000
vn 0.0000 -0.9979 0.0652
vn 0.0000 -0.0652 -0.9979
vn 0.0000 0.0652 0.9979
g Cube.007_Cube.009_Madera
usemtl Madera
s off
f 109/150/66 110/151/66 112/152/66 111/153/66
f 111/153/67 112/152/67 116/154/67 115/155/67
f 115/155/68 116/154/68 114/156/68 113/157/68
f 113/157/69 114/156/69 110/158/69 109/159/69
f 111/160/70 115/155/70 113/157/70 109/161/70
f 116/154/71 112/162/71 110/163/71 114/156/71
