# Blender v3.6.0 OBJ File: 'Arboles-Muebles.blend'
# www.blender.org
mtllib Silla.mtl
o Cube.002
v -3.822106 0.949651 53.494953
v -3.822106 1.072444 53.494953
v -3.822106 0.949651 52.268383
v -3.822106 1.072444 52.268383
v -2.595534 0.949651 53.494953
v -2.595534 1.072444 53.494953
v -2.595534 0.949651 52.268383
v -2.595534 1.072444 52.268383
v -3.822106 0.949651 53.385563
v -3.822106 1.072444 53.385563
v -2.595534 0.949651 53.385563
v -2.595534 1.072444 53.385563
v -2.718192 0.949651 52.268383
v -2.718192 1.072444 52.268383
v -2.718192 0.949651 53.494953
v -2.718192 1.072444 53.494953
v -2.718192 1.072444 53.385563
v -2.718192 0.949651 53.385563
v -3.711715 0.949651 52.268383
v -3.711715 1.072444 53.494953
v -3.711715 0.949651 53.385563
v -3.711715 1.072444 52.268383
v -3.711715 0.949651 53.494953
v -3.711715 1.072444 53.385563
v -3.822106 1.072444 52.380100
v -2.595534 0.949651 52.380100
v -3.822106 0.949651 52.380100
v -2.595534 1.072444 52.380100
v -2.718192 0.949651 52.380100
v -2.718192 1.072444 52.380100
v -3.711715 0.949651 52.380100
v -3.711715 1.072444 52.380100
v -2.595534 2.431877 53.385563
v -2.595534 2.431877 53.494953
v -3.711715 2.431877 53.494953
v -3.822106 2.431877 53.494953
v -3.822106 2.431877 53.385563
v -2.718192 2.431877 53.385563
v -2.718192 2.431877 53.494953
v -3.711715 2.431877 53.385563
v -2.614656 2.701239 53.402615
v -2.614656 2.701239 53.477901
v -3.734265 2.701239 53.472607
v -3.799556 2.701239 53.472607
v -3.799556 2.701239 53.407906
v -2.699069 2.701239 53.402615
v -2.699069 2.701239 53.477901
v -3.734265 2.701239 53.407906
v -2.708631 2.566558 53.394089
v -2.605095 2.566558 53.394089
v -2.708631 2.566558 53.486427
v -2.605095 2.566558 53.486427
v -3.722990 2.566558 53.483780
v -3.810831 2.566558 53.483780
v -3.810831 2.566558 53.396736
v -3.722990 2.566558 53.396736
v -3.822106 0.011578 53.385563
v -3.822106 0.011578 53.494953
v -3.711715 0.011578 52.268383
v -3.822106 0.011578 52.268383
v -2.595534 0.011578 52.380100
v -2.595534 0.011578 52.268383
v -2.718192 0.011578 53.494953
v -2.595534 0.011578 53.494953
v -2.595534 0.011578 53.385563
v -3.711715 0.011578 53.385563
v -2.718192 0.011578 52.268383
v -2.718192 0.011578 53.385563
v -3.711715 0.011578 53.494953
v -3.822106 0.011578 52.380100
v -2.718192 0.011578 52.380100
v -3.711715 0.011578 52.380100
vt 0.375000 0.227230
vt 0.625000 0.227230
vt 0.625000 0.250000
vt 0.375000 0.250000
vt 0.375000 0.475000
vt 0.625000 0.475000
vt 0.625000 0.500000
vt 0.375000 0.500000
vt 0.375000 0.727704
vt 0.625000 0.727704
vt 0.625000 0.750000
vt 0.375000 0.750000
vt 0.375000 0.977500
vt 0.625000 0.977500
vt 0.625000 1.000000
vt 0.375000 1.000000
vt 0.350000 0.522770
vt 0.350000 0.500000
vt 0.350000 0.500000
vt 0.350000 0.522770
vt 0.650000 0.727704
vt 0.650000 0.727704
vt 0.625000 0.727704
vt 0.852500 0.522770
vt 0.875000 0.522770
vt 0.875000 0.727704
vt 0.852500 0.727703
vt 0.375000 0.522770
vt 0.350000 0.727704
vt 0.625000 0.522770
vt 0.375000 0.000000
vt 0.625000 0.000000
vt 0.625000 0.022296
vt 0.375000 0.022296
vt 0.147500 0.522770
vt 0.147500 0.727704
vt 0.650000 0.522770
vt 0.625000 0.977500
vt 0.625000 1.000000
vt 0.350000 0.750000
vt 0.147500 0.750000
vt 0.625000 0.775000
vt 0.375000 0.775000
vt 0.375000 0.272500
vt 0.625000 0.272500
vt 0.375000 0.727704
vt 0.350000 0.727704
vt 0.125000 0.522770
vt 0.125000 0.727704
vt 0.625000 0.775000
vt 0.650000 0.500000
vt 0.852500 0.500000
vt 0.375000 0.775000
vt 0.375000 0.750000
vt 0.147500 0.500000
vt 0.147500 0.727704
vt 0.125000 0.727704
vt 0.875000 0.500000
vt 0.625000 1.000000
vt 0.625000 0.977500
vt 0.625000 0.977500
vt 0.625000 1.000000
vt 0.625000 0.727704
vt 0.650000 0.727704
vt 0.650000 0.727704
vt 0.625000 0.727704
vt 0.852500 0.727703
vt 0.852500 0.750000
vt 0.650000 0.750000
vt 0.625000 0.750000
vt 0.875000 0.727704
vt 0.625000 0.000000
vt 0.625000 0.022296
vt 0.852500 0.727703
vt 0.875000 0.727704
vt 0.875000 0.750000
vt 0.852500 0.750000
vt 0.650000 0.750000
vt 0.625000 0.750000
vt 0.852500 0.727703
vt 0.875000 0.727704
vt 0.650000 0.750000
vt 0.625000 0.775000
vt 0.625000 0.750000
vt 0.625000 0.775000
vt 0.625000 0.022296
vt 0.625000 0.000000
vt 0.625000 0.000000
vt 0.625000 0.022296
vt 0.852500 0.750000
vt 0.000000 0.000000
vt 0.000000 0.000000
vt 0.000000 0.000000
vt 0.000000 0.000000
vt 0.000000 0.000000
vt 0.000000 0.000000
vt 0.000000 0.000000
vt 0.000000 0.000000
vt 0.350000 0.750000
vt 0.147500 0.750000
vt 0.125000 0.750000
vt 0.125000 0.500000
vt 0.147500 0.500000
vt 0.147500 0.522770
vt 0.125000 0.522770
vt 0.375000 0.500000
vt 0.375000 0.522770
vt 0.375000 0.272500
vt 0.375000 0.250000
vt 0.375000 0.475000
vt 0.375000 1.000000
vt 0.375000 0.977500
vt 0.375000 0.022296
vt 0.375000 0.000000
vt 0.375000 0.227230
vn -1.0000 0.0000 0.0000
vn 0.0000 0.0000 -1.0000
vn 1.0000 0.0000 0.0000
vn 0.0000 0.0000 1.0000
vn 0.0000 1.0000 0.0000
vn 0.0000 -1.0000 0.0000
vn 0.0000 0.0827 0.9966
vn 0.0000 0.0632 -0.9980
vn 0.0000 0.0826 -0.9966
vn -0.9975 0.0708 0.0000
vn 0.0000 0.0632 0.9980
vn -0.9965 0.0834 0.0000
vn 0.9975 0.0708 0.0000
vn 0.9965 0.0834 0.0000
vn 0.0000 0.0827 -0.9966
vn -0.0039 0.0729 0.9973
vn 0.0039 -0.0729 0.9973
g Cube.002_Cube.002_None
usemtl None
s off
f 27/1/1 25/2/1 4/3/1 3/4/1
f 13/5/2 14/6/2 8/7/2 7/8/2
f 11/9/3 12/10/3 6/11/3 5/12/3
f 23/13/4 20/14/4 2/15/4 1/16/4
f 29/17/1 13/18/1 67/19/1 71/20/1
f 12/10/2 17/21/2 38/22/2 33/23/2
f 32/24/5 25/25/5 10/26/5 24/27/5
f 29/17/6 26/28/6 11/9/6 18/29/6
f 26/28/3 28/30/3 12/10/3 11/9/3
f 1/31/1 2/32/1 10/33/1 9/34/1
f 31/35/6 29/17/6 18/29/6 21/36/6
f 28/30/5 30/37/5 17/21/5 12/10/5
f 2/15/4 20/14/4 35/38/4 36/39/4
f 21/36/6 18/29/6 15/40/6 23/41/6
f 5/12/4 6/11/4 16/42/4 15/43/4
f 19/44/2 22/45/2 14/6/2 13/5/2
f 3/4/2 4/3/2 22/45/2 19/44/2
f 18/29/2 11/9/2 65/46/2 68/47/2
f 27/48/6 31/35/6 21/36/6 9/49/6
f 30/37/5 32/24/5 24/27/5 17/21/5
f 20/14/4 16/42/4 39/50/4 35/38/4
f 15/43/4 16/42/4 20/14/4 23/13/4
f 14/51/5 22/52/5 32/24/5 30/37/5
f 5/12/4 15/43/4 63/53/4 64/54/4
f 8/7/5 14/51/5 30/37/5 28/30/5
f 19/55/6 13/18/6 29/17/6 31/35/6
f 7/8/3 8/7/3 28/30/3 26/28/3
f 9/49/2 21/36/2 66/56/2 57/57/2
f 22/52/5 4/58/5 25/25/5 32/24/5
f 9/34/1 10/33/1 25/2/1 27/1/1
f 54/59/7 53/60/7 43/61/7 44/62/7
f 50/63/8 49/64/8 46/65/8 41/66/8
f 38/22/5 40/67/5 35/68/5 39/69/5
f 16/42/4 6/11/4 34/70/4 39/50/4
f 6/11/3 12/10/3 33/23/3 34/70/3
f 24/27/2 10/26/2 37/71/2 40/67/2
f 17/21/2 24/27/2 40/67/2 38/22/2
f 10/33/1 2/32/1 36/72/1 37/73/1
f 48/74/5 45/75/5 44/76/5 43/77/5
f 41/66/5 46/65/5 47/78/5 42/79/5
f 56/80/9 55/81/9 45/75/9 48/74/9
f 49/64/10 51/82/10 47/78/10 46/65/10
f 51/83/11 52/84/11 42/79/11 47/85/11
f 55/86/12 54/87/12 44/88/12 45/89/12
f 52/84/13 50/63/13 41/66/13 42/79/13
f 53/90/14 56/80/14 48/74/14 43/77/14
f 34/70/13 33/23/13 50/63/13 52/84/13
f 39/50/11 34/70/11 52/84/11 51/83/11
f 38/22/10 39/69/10 51/82/10 49/64/10
f 33/23/8 38/22/8 49/64/8 50/63/8
f 35/68/14 40/67/14 56/80/14 53/90/14
f 37/73/12 36/72/12 54/87/12 55/86/12
f 40/67/15 37/71/15 55/81/15 56/80/15
f 36/39/7 35/38/7 53/60/7 54/59/7
f 47/78/16 43/61/16 53/60/16 51/82/16
f 48/91/6 46/92/6 47/93/6 43/94/6
f 51/95/6 53/96/6 56/97/6 49/98/6
f 56/97/17 49/98/17 46/92/17 48/91/17
f 68/47/6 65/46/6 64/54/6 63/99/6
f 57/57/6 66/56/6 69/100/6 58/101/6
f 60/102/6 59/103/6 72/104/6 70/105/6
f 67/19/6 62/106/6 61/107/6 71/20/6
f 3/4/2 19/44/2 59/108/2 60/109/2
f 26/28/4 29/17/4 71/20/4 61/107/4
f 13/5/2 7/8/2 62/106/2 67/110/2
f 19/55/3 31/35/3 72/104/3 59/103/3
f 23/13/4 1/16/4 58/111/4 69/112/4
f 11/9/3 5/12/3 64/54/3 65/46/3
f 15/40/1 18/29/1 68/47/1 63/99/1
f 7/8/3 26/28/3 61/107/3 62/106/3
f 1/31/1 9/34/1 57/113/1 58/114/1
f 31/35/4 27/48/4 70/105/4 72/104/4
f 27/1/1 3/4/1 60/109/1 70/115/1
f 21/36/3 23/41/3 69/100/3 66/56/3
o Cube.003
v -3.553216 0.009780 53.038784
v -3.553216 0.679711 53.038784
v -3.553216 0.009780 52.368855
v -3.553216 0.679711 52.368855
v -2.883285 0.009780 53.038784
v -2.883285 0.679711 53.038784
v -2.883285 0.009780 52.368855
v -2.883285 0.679711 52.368855
v -3.218678 0.863737 52.368855
v -3.218678 0.863737 53.038784
v -3.217665 0.741090 52.368855
v -3.217665 0.741090 53.038784
vt 0.375000 0.000000
vt 0.625000 0.000000
vt 0.625000 0.250000
vt 0.375000 0.250000
vt 0.375000 0.500000
vt 0.625000 0.500000
vt 0.625000 0.750000
vt 0.375000 0.750000
vt 0.750000 0.500000
vt 0.875000 0.500000
vt 0.875000 0.750000
vt 0.750000 0.750000
vt 0.747199 0.500000
vt 0.747199 0.750000
vn -1.0000 0.0000 0.0000
vn 1.0000 0.0000 0.0000
vn 0.0000 -1.0000 0.0000
vn 0.0000 0.0000 -1.0000
vn -0.4820 0.8762 0.0000
vn 0.0000 0.0000 1.0000
vn 0.1805 0.9836 0.0000
g Cube.003_Cube.003_None
usemtl None
s off
f 73/116/18 74/117/18 76/118/18 75/119/18
f 79/120/19 80/121/19 78/122/19 77/123/19
f 75/119/20 79/120/20 77/123/20 73/116/20
f 75/119/21 76/118/21 80/121/21 79/120/21
f 81/124/22 76/125/22 74/126/22 82/127/22
f 73/116/23 77/123/23 78/122/23 74/117/23
f 80/121/24 83/128/24 84/129/24 78/122/24
