# Blender 3.6.0
# www.blender.org
mtllib Tronco.mtl
o Cylinder
v -20.851143 0.839689 43.107578
v -20.851143 1.096705 43.194630
v -20.453217 0.839689 43.396687
v -20.536009 1.096705 43.423588
v -20.605211 0.839689 43.864479
v -20.656380 1.096705 43.794052
v -21.097075 0.839689 43.864479
v -21.045906 1.096705 43.794052
v -21.249069 0.839689 43.396687
v -21.166277 1.096705 43.423588
v -20.453217 1.096705 43.396687
v -20.851143 1.096705 43.107578
v -20.605211 1.096705 43.864479
v -21.097075 1.096705 43.864479
v -21.249069 1.096705 43.396687
v -20.536009 1.063617 43.423588
v -20.851143 1.063617 43.194630
v -20.656380 1.063617 43.794052
v -21.045906 1.063617 43.794052
v -21.166277 1.063617 43.423588
v -20.851143 0.976061 43.107578
v -20.453217 0.976061 43.396687
v -20.605211 0.976061 43.864479
v -21.097075 0.976061 43.864479
v -21.249069 0.976061 43.396687
v -20.719954 0.839689 43.111362
v -20.508636 0.839689 43.292400
v -20.617638 0.997708 43.204670
v -20.453550 0.840127 43.396694
v -20.604887 0.840477 43.864483
v -20.522648 0.976061 43.610374
v -20.418255 0.828047 42.889713
v -20.410812 0.828047 42.895119
v -20.414690 0.836285 42.892303
v -20.087145 0.871348 43.787415
v -20.088509 0.871785 43.791607
v -20.087337 0.875411 43.788006
v -20.130377 0.917879 43.754765
v -20.126837 0.843763 43.743874
v -20.151871 0.855697 43.820919
v -19.967592 0.840559 43.625294
v -19.967588 0.840496 43.625286
v -19.968264 0.841265 43.624775
v -19.968208 0.840108 43.624607
v -20.076479 0.850221 43.928684
v -20.076040 0.851724 43.927338
v -20.092136 0.868622 43.914906
v -20.100174 0.843716 43.939648
v -20.321501 0.841726 43.667152
v -20.326511 0.946970 43.682571
v -20.356943 0.847693 43.776226
v -20.417734 0.840927 43.561344
v -20.424580 0.961515 43.646473
v -20.502365 0.844085 43.783012
v -20.530647 0.902140 43.050209
v -20.561941 0.829836 43.027473
v -20.496622 0.829836 43.074928
v -20.633785 0.830730 43.096352
v -20.588627 0.935068 43.129162
v -20.513597 0.830730 43.154594
v -21.234219 0.839440 43.751625
v -21.290249 0.841425 43.527458
v -21.242765 0.976061 43.639679
v -21.264494 0.903241 43.572803
v -21.245073 0.898470 43.744102
v -21.617163 0.842100 43.759975
v -21.617313 0.842100 43.759518
v -21.617199 0.843092 43.759865
v -21.617357 0.842562 43.759377
v -21.617006 0.842528 43.760456
v -21.447178 0.843449 43.672932
v -21.428213 0.859184 43.682205
v -21.439352 0.843449 43.738171
v -21.416277 0.858003 43.718945
v -21.422834 0.877214 43.698765
vn 0.5877 0.0001 -0.8091
vn -0.0000 -0.0000 1.0000
vn -0.5878 -0.0000 0.8090
vn -0.9143 0.2753 0.2971
vn -0.5878 -0.0000 -0.8090
vn -0.0000 -1.0000 0.0002
vn -0.0000 1.0000 -0.0000
vn 0.9511 -0.0000 -0.3090
vn -0.9511 -0.0000 -0.3090
vn 0.5878 -0.0000 0.8090
vn -0.0000 -0.0000 -1.0000
vn -0.6898 0.2645 0.6739
vn -0.9508 0.0007 0.3097
vn 0.5600 0.2204 -0.7987
vn -0.0054 -1.0000 0.0074
vn -0.6095 0.4656 -0.6417
vn 0.7855 0.4961 0.3699
vn 0.7994 -0.0488 0.5988
vn 0.9510 0.0001 0.3093
vn 0.1730 -0.9701 -0.1703
vn 0.3482 -0.9033 0.2507
vn -0.0037 -0.9955 0.0945
vn -0.1590 0.7199 0.6756
vn 0.3611 0.1522 -0.9200
vn 0.6915 0.1356 -0.7095
vn -0.5973 0.0886 -0.7971
vn 0.2427 -0.9044 0.3509
vn 0.5727 0.7791 0.2548
vn 0.1483 0.6705 0.7269
vn 0.6816 0.7288 0.0648
vn 0.8957 -0.4205 -0.1444
vn -0.7012 0.6147 0.3611
vn 0.5668 0.3598 -0.7412
vn -0.0478 0.7384 0.6727
vn 0.0060 -0.9995 0.0298
vn 0.0239 -0.9996 0.0133
vn 0.1755 0.7920 0.5848
vn 0.6529 0.6487 -0.3910
vn 0.7892 0.5593 0.2537
vn -0.0051 -0.9999 0.0090
vn -0.0608 -0.9946 0.0843
vn -0.2856 0.5408 -0.7912
vn 0.8331 0.5459 -0.0893
vn 0.9512 0.0006 0.3087
vn -0.9766 0.1983 -0.0832
vn 0.0075 -1.0000 -0.0009
vn 0.0818 0.7267 0.6821
vn -0.3244 0.6906 -0.6464
vn 0.0825 0.7350 0.6730
vn -0.2441 0.7617 0.6001
vn -0.5345 0.6527 -0.5370
vn -0.1295 0.3577 0.9248
vn -0.0177 -0.9998 -0.0029
vn -0.5128 0.6720 -0.5343
vn -0.3114 0.7323 -0.6056
vt 0.160901 0.912124
vt 0.160903 0.912107
vt 0.160905 0.912124
vt 0.160937 0.912153
vt 0.160956 0.912153
vt 0.160963 0.912157
vt 0.160935 0.912136
vt 0.160947 0.912128
vt 0.160937 0.912107
vt 0.160937 0.912090
vt 0.160950 0.912090
vt 0.160950 0.912107
vt 0.160943 0.912107
vt 0.160928 0.912135
vt 0.160962 0.912135
vt 0.160947 0.912124
vt 0.160913 0.912124
vt 0.160908 0.912128
vt 0.160904 0.912131
vt 0.160898 0.912135
vt 0.160901 0.912143
vt 0.160902 0.912148
vt 0.160904 0.912153
vt 0.160923 0.912153
vt 0.160926 0.912145
vt 0.160926 0.912142
vt 0.160931 0.912135
vt 0.160939 0.912151
vt 0.160954 0.912151
vt 0.160959 0.912136
vt 0.350332 0.032923
vt 0.349120 0.033803
vt 0.347908 0.032923
vt 0.348370 0.031498
vt 0.349869 0.031498
vt 0.158496 0.910884
vt 0.158496 0.910201
vt 0.158780 0.910201
vt 0.158685 0.910590
vt 0.158762 0.910884
vt 0.160943 0.912124
vt 0.160941 0.912117
vt 0.160945 0.912116
vt 0.160945 0.912124
vt 0.160916 0.912107
vt 0.160916 0.912124
vt 0.160919 0.912124
vt 0.160950 0.912124
s 0
usemtl m_tronco_tree
f 32/1/1 34/2/1 33/3/1
f 13/4/2 14/5/2 7/6/2 30/6/2
f 4/7/3 2/8/3 17/8/3 16/7/3
f 24/9/4 14/10/4 15/11/4 25/12/4 63/13/4
f 9/14/5 15/15/5 12/16/5 1/17/5
f 1/17/6 26/18/6 27/19/6 3/20/6 29/21/6 30/22/6 5/23/6 7/24/6 61/25/6 62/26/6 9/14/6
f 2/8/7 4/7/7 11/27/7 12/16/7
f 4/7/7 6/28/7 13/4/7 11/27/7
f 6/28/7 8/29/7 14/5/7 13/4/7
f 8/29/7 10/30/7 15/15/7 14/5/7
f 10/30/7 2/8/7 12/16/7 15/15/7
f 10/30/8 8/29/8 19/29/8 20/30/8
f 6/28/9 4/7/9 16/7/9 18/28/9
f 2/8/10 10/30/10 20/30/10 17/8/10
f 8/29/11 6/28/11 18/28/11 19/29/11
f 7/36/12 24/37/12 63/38/12 65/39/12 61/40/12
f 66/41/13 70/42/13 68/13/13 69/43/13 67/44/13
f 12/16/14 11/27/14 3/20/14 27/19/14 28/2/14 26/1/14 1/17/14
f 57/19/15 56/18/15 32/18/15 33/19/15
f 56/1/16 55/2/16 34/2/16 32/1/16
f 55/2/17 57/19/17 33/19/17 34/2/17
f 37/45/18 35/46/18 42/46/18 41/45/18
f 35/46/19 37/45/19 36/47/19
f 40/22/20 36/22/20 45/22/20 48/22/20
f 40/22/21 39/21/21 35/21/21 36/22/21
f 51/22/22 49/21/22 39/21/22 40/22/22
f 50/45/23 51/47/23 40/47/23 38/45/23
f 49/46/24 50/45/24 38/45/24 39/46/24
f 44/46/25 43/45/25 41/45/25 42/46/25
f 39/46/26 38/45/26 43/45/26 44/46/26
f 35/21/27 39/21/27 44/21/27 42/21/27
f 38/45/28 37/45/28 41/45/28 43/45/28
f 47/45/29 48/47/29 45/47/29 46/45/29
f 37/45/30 38/45/30 47/45/30 46/45/30
f 36/47/31 37/45/31 46/45/31 45/47/31
f 38/45/32 40/47/32 48/47/32 47/45/32
f 52/46/33 53/45/33 50/45/33 49/46/33
f 53/45/34 54/47/34 51/47/34 50/45/34
f 54/22/35 52/21/35 49/21/35 51/22/35
f 30/22/36 29/21/36 52/21/36 54/22/36
f 31/45/37 30/47/37 54/47/37 53/45/37
f 29/46/38 31/45/38 53/45/38 52/46/38
f 59/2/39 60/19/39 57/19/39 55/2/39
f 58/1/16 59/2/16 55/2/16 56/1/16
f 60/19/40 58/18/40 56/18/40 57/19/40
f 27/19/41 26/18/41 58/18/41 60/19/41
f 26/1/42 28/2/42 59/2/42 58/1/42
f 28/2/43 27/19/43 60/19/43 59/2/43
f 11/27/44 13/4/44 30/6/44 3/20/44
f 62/44/45 64/43/45 63/13/45 25/12/45 9/48/45
f 71/26/46 73/25/46 66/25/46 67/26/46
f 73/41/47 74/42/47 70/42/47 66/41/47
f 75/13/48 72/43/48 69/43/48 68/13/48
f 74/42/49 75/13/49 68/13/49 70/42/49
f 65/42/50 63/13/50 75/13/50 74/42/50
f 63/13/51 64/43/51 72/43/51 75/13/51
f 61/41/52 65/42/52 74/42/52 73/41/52
f 62/26/53 61/25/53 73/25/53 71/26/53
f 64/43/54 62/44/54 71/44/54 72/43/54
f 72/43/55 71/44/55 69/43/55
usemtl a.005
f 16/31/7 17/32/7 20/33/7 19/34/7 18/35/7
l 21 12
l 22 3
l 23 5
l 1 21
l 11 22
l 13 23
