# Blender 3.6.0
# www.blender.org
mtllib Huesos.mtl
o Hueso.001
v 6.559670 -0.049299 -5.595828
v 6.560632 0.075267 -5.594805
v 6.663523 -0.049299 -5.592628
v 6.662500 0.075267 -5.591666
v 6.556470 -0.049299 -5.491975
v 6.557493 0.075267 -5.492937
v 6.660323 -0.049299 -5.488775
v 6.659361 0.075267 -5.489798
v 6.557539 0.415499 -5.447741
v 6.656533 0.415499 -5.444691
v 6.653483 0.415499 -5.345696
v 6.554489 0.415499 -5.348746
v 6.571380 0.662931 -5.273443
v 6.631988 0.662931 -5.271575
v 6.630120 0.662931 -5.210968
v 6.569512 0.662931 -5.212835
v 6.592884 0.778666 -5.102202
v 6.599982 0.778666 -5.101984
v 6.599763 0.778666 -5.094885
v 6.592665 0.778666 -5.095104
v 6.642993 -0.050030 -4.564820
v 6.642001 0.074535 -4.565813
v 6.539091 -0.050030 -4.564792
v 6.540084 0.074535 -4.565785
v 6.642965 -0.050030 -4.668723
v 6.641973 0.074535 -4.667729
v 6.539063 -0.050030 -4.668694
v 6.540056 0.074535 -4.667702
v 6.640523 0.414768 -4.712903
v 6.541482 0.414768 -4.712875
v 6.541455 0.414768 -4.811917
v 6.640496 0.414768 -4.811944
v 6.621274 0.662200 -4.886686
v 6.560637 0.662200 -4.886670
v 6.560621 0.662200 -4.947307
v 6.621257 0.662200 -4.947323
v 6.594460 0.777935 -5.057176
v 6.587358 0.777935 -5.057174
v 6.587357 0.777935 -5.064275
v 6.594458 0.777935 -5.064277
v 6.382108 -0.015849 -4.810796
v 6.382026 0.041817 -4.811440
v 6.344059 -0.015849 -4.840222
v 6.344704 0.041817 -4.840305
v 6.411535 -0.015849 -4.848844
v 6.410890 0.041817 -4.848762
v 6.373487 -0.015849 -4.878271
v 6.373569 0.041817 -4.877626
v 6.423157 0.199322 -4.865711
v 6.386889 0.199322 -4.893761
v 6.414939 0.199322 -4.930029
v 6.451207 0.199322 -4.901979
v 6.465345 0.313868 -4.934790
v 6.443141 0.313868 -4.951963
v 6.460314 0.313868 -4.974168
v 6.482519 0.313868 -4.956995
v 6.503831 0.367446 -5.004806
v 6.501230 0.367446 -5.006817
v 6.503242 0.367446 -5.009418
v 6.505842 0.367446 -5.007406
v 6.865217 0.045842 -4.837175
v 6.855288 0.129683 -4.844474
v 6.817235 0.045842 -4.806098
v 6.814634 0.129683 -4.818143
v 6.834139 0.045842 -4.885158
v 6.828958 0.129683 -4.885128
v 6.786158 0.045842 -4.854080
v 6.788304 0.129683 -4.858797
v 6.811674 0.215259 -4.900268
v 6.781556 0.215259 -4.880760
v 6.762049 0.215259 -4.910879
v 6.792167 0.215259 -4.930386
v 6.764783 0.353871 -4.961794
v 6.744586 0.353871 -4.948713
v 6.731505 0.353871 -4.968909
v 6.751701 0.353871 -4.981991
v 6.723426 0.420379 -5.012265
v 6.715441 0.420379 -5.007093
v 6.710268 0.420379 -5.015079
v 6.718254 0.420379 -5.020251
v 6.802824 -0.028323 -5.450136
v 6.800566 0.066960 -5.437172
v 6.859116 -0.028323 -5.410390
v 6.847656 0.066960 -5.403924
v 6.763078 -0.028323 -5.393844
v 6.767318 0.066960 -5.390082
v 6.819370 -0.028323 -5.354098
v 6.814407 0.066960 -5.356834
v 6.759780 0.213780 -5.371781
v 6.799684 0.213780 -5.343607
v 6.771510 0.213780 -5.303704
v 6.731606 0.213780 -5.331878
v 6.729831 0.357359 -5.315344
v 6.756524 0.357359 -5.296497
v 6.737677 0.357359 -5.269804
v 6.710984 0.357359 -5.288651
v 6.718066 0.430632 -5.290057
v 6.736632 0.430632 -5.276948
v 6.723523 0.430632 -5.258381
v 6.704956 0.430632 -5.271490
v 6.703360 0.468230 -5.254819
v 6.708348 0.468230 -5.251297
v 6.704826 0.468230 -5.246308
v 6.699837 0.468230 -5.249830
v 6.325051 -0.029163 -5.368633
v 6.326000 0.055131 -5.368604
v 6.376273 -0.029163 -5.416799
v 6.376244 0.055131 -5.415849
v 6.373216 -0.029163 -5.317410
v 6.373245 0.055131 -5.318360
v 6.424438 -0.029163 -5.365576
v 6.423489 0.055131 -5.365605
v 6.378056 0.253350 -5.327171
v 6.414399 0.253350 -5.361345
v 6.448573 0.253350 -5.325002
v 6.412230 0.253350 -5.290828
v 6.414037 0.345596 -5.300139
v 6.439168 0.345596 -5.323771
v 6.462800 0.345596 -5.298640
v 6.437668 0.345596 -5.275008
v 6.446758 0.445624 -5.277223
v 6.460031 0.445624 -5.289703
v 6.472512 0.445624 -5.276431
v 6.459239 0.445624 -5.263950
v 6.481483 0.497297 -5.251385
v 6.483686 0.497297 -5.253456
v 6.485757 0.497297 -5.251253
v 6.483554 0.497297 -5.249182
v 6.184577 -0.042196 -5.018842
v 6.185671 0.095035 -5.019936
v 6.184577 -0.042196 -5.133309
v 6.185671 0.095035 -5.132215
v 6.299044 -0.042196 -5.018842
v 6.297951 0.095035 -5.019936
v 6.299044 -0.042196 -5.133309
v 6.297951 0.095035 -5.132215
v 6.260511 0.405520 -5.027179
v 6.260511 0.405520 -5.124972
v 6.358304 0.405520 -5.124972
v 6.358304 0.405520 -5.027179
v 6.325847 0.607430 -5.043390
v 6.325847 0.607430 -5.108762
v 6.391218 0.607430 -5.108762
v 6.391218 0.607430 -5.043390
v 6.425723 0.724232 -5.053862
v 6.425723 0.724232 -5.098291
v 6.470152 0.724232 -5.098291
v 6.470152 0.724232 -5.053862
v 6.537791 0.823260 -5.070787
v 6.537791 0.823260 -5.081367
v 6.548371 0.823260 -5.081367
v 6.548371 0.823260 -5.070787
v 6.418533 -0.020727 -5.136232
v 6.412049 0.057291 -5.138256
v 6.418533 -0.020727 -5.192471
v 6.412049 0.057291 -5.190448
v 6.474771 -0.020727 -5.136232
v 6.464242 0.057291 -5.138256
v 6.474771 -0.020727 -5.192471
v 6.464242 0.057291 -5.190448
v 6.448000 0.181930 -5.138534
v 6.448000 0.181930 -5.190169
v 6.499636 0.181930 -5.190169
v 6.499636 0.181930 -5.138534
v 6.494257 0.276257 -5.143581
v 6.494257 0.276257 -5.185122
v 6.535797 0.276257 -5.185122
v 6.535797 0.276257 -5.143581
v 6.532169 0.350163 -5.161324
v 6.532169 0.350163 -5.167380
v 6.538225 0.350163 -5.167380
v 6.538225 0.350163 -5.161324
v 6.630999 -0.027463 -5.157902
v 6.631643 0.053431 -5.158547
v 6.630999 -0.027463 -5.225377
v 6.631643 0.053431 -5.224732
v 6.698473 -0.027463 -5.157902
v 6.697828 0.053431 -5.158547
v 6.698473 -0.027463 -5.225377
v 6.697828 0.053431 -5.224732
v 6.638564 0.154291 -5.165468
v 6.638564 0.154291 -5.217812
v 6.690907 0.154291 -5.217812
v 6.690907 0.154291 -5.165468
v 6.650162 0.291173 -5.177065
v 6.650162 0.291173 -5.206214
v 6.679310 0.291173 -5.206214
v 6.679310 0.291173 -5.177065
v 6.658722 0.348660 -5.185627
v 6.658722 0.348660 -5.197653
v 6.670750 0.348660 -5.197653
v 6.670750 0.348660 -5.185627
v 6.978016 -0.068028 -5.011573
v 6.975142 0.083348 -5.012403
v 6.978016 -0.068028 -5.135986
v 6.975142 0.083348 -5.135156
v 7.102428 -0.068028 -5.011573
v 7.097895 0.083348 -5.012403
v 7.102428 -0.068028 -5.135986
v 7.097895 0.083348 -5.135156
v 6.921304 0.366085 -5.026919
v 6.921304 0.366085 -5.120639
v 7.015024 0.366085 -5.120639
v 7.015024 0.366085 -5.026919
v 6.757004 0.715537 -5.030073
v 6.757004 0.715537 -5.117486
v 6.844417 0.715537 -5.117486
v 6.844417 0.715537 -5.030073
v 6.659930 0.832726 -5.061074
v 6.659930 0.832726 -5.086485
v 6.685341 0.832726 -5.086485
v 6.685341 0.832726 -5.061074
vn 0.0308 0.0080 -0.9995
vn 0.9995 0.0080 0.0308
vn -0.0308 0.0080 0.9995
vn -0.9995 0.0080 -0.0308
vn -0.0000 -1.0000 -0.0000
vn 0.9995 0.0042 0.0308
vn -0.0270 -0.4800 0.8769
vn -0.0284 -0.3903 0.9203
vn 0.0283 0.3968 -0.9175
vn -0.9995 0.0042 -0.0308
vn 0.0173 0.8274 -0.5614
vn 0.0252 0.5748 -0.8179
vn -0.9965 0.0774 -0.0307
vn 0.9965 0.0774 0.0307
vn -0.0000 1.0000 -0.0000
vn -0.9738 0.2253 -0.0300
vn 0.9738 0.2253 0.0300
vn -0.0217 -0.7108 0.7030
vn 0.0003 0.0080 1.0000
vn -1.0000 0.0080 0.0003
vn -0.0003 0.0080 -1.0000
vn 1.0000 0.0080 -0.0003
vn -1.0000 0.0042 0.0003
vn -0.0002 -0.4800 -0.8773
vn -0.0002 -0.3903 -0.9207
vn 0.0002 0.3968 0.9179
vn 1.0000 0.0042 -0.0003
vn 0.0002 0.8274 0.5616
vn 0.0002 0.5748 0.8183
vn 0.9970 0.0774 -0.0003
vn -0.9970 0.0774 0.0003
vn 0.9743 0.2253 -0.0003
vn -0.9743 0.2253 0.0003
vn -0.0002 -0.7108 -0.7034
vn -0.6118 0.0080 0.7910
vn -0.7910 0.0080 -0.6118
vn 0.6118 0.0080 -0.7910
vn 0.7910 0.0080 0.6118
vn -0.7910 0.0042 -0.6118
vn 0.5367 -0.4800 -0.6939
vn 0.5633 -0.3903 -0.7283
vn -0.5616 0.3968 0.7261
vn 0.7910 0.0042 0.6118
vn -0.3436 0.8274 0.4443
vn -0.5006 0.5748 0.6473
vn 0.7887 0.0774 0.6099
vn -0.7887 0.0774 -0.6099
vn 0.7707 0.2253 0.5960
vn -0.7707 0.2253 -0.5960
vn 0.4303 -0.7108 -0.5564
vn 0.5386 0.1362 0.8315
vn -0.8382 0.0520 0.5429
vn -0.5433 -0.0333 -0.8389
vn 0.8382 0.0520 -0.5429
vn -0.8371 0.0731 0.5422
vn -0.4918 -0.4262 -0.7593
vn -0.4500 -0.5610 -0.6948
vn 0.4195 0.6361 0.6477
vn 0.8371 0.0731 -0.5422
vn 0.3892 0.6981 0.6010
vn 0.4750 0.4862 0.7334
vn 0.8386 0.0426 -0.5431
vn -0.8386 0.0426 0.5431
vn 0.8344 0.1087 -0.5404
vn -0.8344 0.1087 0.5404
vn -0.4336 -0.6032 -0.6695
vn 0.5723 0.1239 -0.8106
vn 0.8155 0.0590 0.5758
vn -0.5768 -0.0066 0.8169
vn -0.8155 0.0590 -0.5758
vn 0.8165 0.0299 0.5765
vn -0.5479 -0.3123 0.7760
vn -0.5232 -0.4210 0.7410
vn 0.5109 0.4642 -0.7236
vn -0.8165 0.0299 -0.5765
vn -0.8150 0.0677 -0.5755
vn 0.5277 0.4038 -0.7473
vn -0.8156 0.0562 -0.5759
vn 0.8156 0.0562 0.5759
vn 0.7976 0.2158 0.5632
vn 0.8150 0.0677 0.5755
vn -0.5610 -0.2322 0.7946
vn 0.5401 0.3507 -0.7650
vn -0.5056 -0.4813 0.7160
vn 0.4096 0.7040 -0.5802
vn -0.7976 0.2158 -0.5632
vn -0.6850 0.0080 -0.7285
vn 0.7285 0.0080 -0.6850
vn 0.6850 0.0080 0.7285
vn -0.7285 0.0080 0.6850
vn 0.7277 0.0481 -0.6842
vn 0.6536 -0.2994 0.6951
vn 0.6667 -0.2296 0.7090
vn -0.6501 0.3152 -0.6914
vn -0.7277 0.0481 0.6842
vn -0.6380 0.3642 -0.6785
vn -0.6174 0.4332 -0.6566
vn -0.7260 0.0831 0.6827
vn 0.7260 0.0831 -0.6827
vn -0.7208 0.1455 0.6777
vn -0.7261 0.0811 0.6828
vn 0.7261 0.0811 -0.6828
vn 0.6679 -0.2225 0.7102
vn 0.7208 0.1455 -0.6777
vn 0.6051 -0.4687 0.6435
vn -0.5285 0.6362 -0.5621
vn -1.0000 0.0080 -0.0000
vn -0.0000 0.0080 -1.0000
vn 1.0000 0.0080 -0.0000
vn -0.0000 0.0080 1.0000
vn -0.0000 0.0233 -0.9997
vn 0.9870 -0.1609 -0.0000
vn 0.9816 -0.1908 -0.0000
vn -0.9722 0.2343 -0.0000
vn -0.0000 0.0233 0.9997
vn -0.7600 0.6499 -0.0000
vn -0.9514 0.3079 -0.0000
vn -0.0000 0.0800 0.9968
vn -0.0000 0.0800 -0.9968
vn -0.0000 0.1685 0.9857
vn -0.0000 0.0893 0.9960
vn -0.0000 0.0893 -0.9960
vn 0.8285 -0.5599 -0.0000
vn -0.0000 0.1685 -0.9857
vn 0.7847 -0.6198 -0.0000
vn -0.6622 0.7494 -0.0000
vn -0.9966 -0.0828 -0.0000
vn -0.0000 0.0259 -0.9997
vn 0.9910 0.1338 -0.0000
vn -0.0000 0.0259 0.9997
vn -0.9608 0.2771 -0.0000
vn -0.0000 0.0534 0.9986
vn -0.0000 0.0022 1.0000
vn -0.0000 0.0022 -1.0000
vn 0.9620 -0.2732 -0.0000
vn 0.9995 -0.0328 -0.0000
vn -0.0000 0.0534 -0.9986
vn 0.9337 -0.3580 -0.0000
vn -0.8979 0.4403 -0.0000
vn -0.8898 0.4564 -0.0000
vn -0.0000 0.2334 0.9724
vn -0.0000 0.2334 -0.9724
vn 0.9977 0.0685 -0.0000
vn -0.0000 0.0844 0.9964
vn -0.9977 0.0685 -0.0000
vn -0.0000 0.0685 0.9977
vn -0.0000 0.0685 -0.9977
vn -0.0000 0.1473 -0.9891
vn -0.0000 0.0844 -0.9964
vn 0.9964 0.0844 -0.0000
vn -0.9964 0.0844 -0.0000
vn 0.9891 0.1473 -0.0000
vn -0.9891 0.1473 -0.0000
vn -0.0000 0.1473 0.9891
vn -0.9998 -0.0190 -0.0000
vn -0.0000 0.0055 -1.0000
vn 0.9996 0.0299 -0.0000
vn -0.0000 0.0055 1.0000
vn -0.0000 0.0513 -0.9987
vn 0.8986 0.4387 -0.0000
vn 0.9596 0.2813 -0.0000
vn -0.9823 -0.1871 -0.0000
vn -0.0000 0.0513 0.9987
vn -0.7701 -0.6379 -0.0000
vn -0.9050 -0.4255 -0.0000
vn -0.0000 0.0090 1.0000
vn -0.0000 0.0090 -1.0000
vn -0.0000 0.2557 0.9667
vn -0.0000 0.2557 -0.9667
vn 0.5931 0.8051 -0.0000
vt 0.375000 0.000000
vt 0.625000 0.000000
vt 0.625000 0.250000
vt 0.375000 0.250000
vt 0.625000 0.500000
vt 0.375000 0.500000
vt 0.625000 0.750000
vt 0.375000 0.750000
vt 0.625000 1.000000
vt 0.375000 1.000000
vt 0.125000 0.500000
vt 0.125000 0.750000
vt 0.875000 0.500000
vt 0.875000 0.750000
s 0
usemtl Planta.001
f 1/1/1 2/2/1 4/3/1 3/4/1
f 3/4/2 4/3/2 8/5/2 7/6/2
f 7/6/3 8/5/3 6/7/3 5/8/3
f 5/8/4 6/7/4 2/9/4 1/10/4
f 3/11/5 7/6/5 5/8/5 1/12/5
f 8/5/6 4/3/6 10/3/6 11/5/6
f 12/7/7 11/5/7 15/5/7 16/7/7
f 6/7/8 8/5/8 11/5/8 12/7/8
f 4/3/9 2/2/9 9/2/9 10/3/9
f 2/9/10 6/7/10 12/7/10 9/9/10
f 14/3/11 13/2/11 17/2/11 18/3/11
f 10/3/12 9/2/12 13/2/12 14/3/12
f 9/9/13 12/7/13 16/7/13 13/9/13
f 11/5/14 10/3/14 14/3/14 15/5/14
f 19/5/15 18/13/15 17/14/15 20/7/15
f 13/9/16 16/7/16 20/7/16 17/9/16
f 15/5/17 14/3/17 18/3/17 19/5/17
f 16/7/18 15/5/18 19/5/18 20/7/18
f 21/1/19 22/2/19 24/3/19 23/4/19
f 23/4/20 24/3/20 28/5/20 27/6/20
f 27/6/21 28/5/21 26/7/21 25/8/21
f 25/8/22 26/7/22 22/9/22 21/10/22
f 23/11/5 27/6/5 25/8/5 21/12/5
f 28/5/23 24/3/23 30/3/23 31/5/23
f 32/7/24 31/5/24 35/5/24 36/7/24
f 26/7/25 28/5/25 31/5/25 32/7/25
f 24/3/26 22/2/26 29/2/26 30/3/26
f 22/9/27 26/7/27 32/7/27 29/9/27
f 34/3/28 33/2/28 37/2/28 38/3/28
f 30/3/29 29/2/29 33/2/29 34/3/29
f 29/9/30 32/7/30 36/7/30 33/9/30
f 31/5/31 30/3/31 34/3/31 35/5/31
f 39/5/15 38/13/15 37/14/15 40/7/15
f 33/9/32 36/7/32 40/7/32 37/9/32
f 35/5/33 34/3/33 38/3/33 39/5/33
f 36/7/34 35/5/34 39/5/34 40/7/34
f 41/1/35 42/2/35 44/3/35 43/4/35
f 43/4/36 44/3/36 48/5/36 47/6/36
f 47/6/37 48/5/37 46/7/37 45/8/37
f 45/8/38 46/7/38 42/9/38 41/10/38
f 43/11/5 47/6/5 45/8/5 41/12/5
f 48/5/39 44/3/39 50/3/39 51/5/39
f 52/7/40 51/5/40 55/5/40 56/7/40
f 46/7/41 48/5/41 51/5/41 52/7/41
f 44/3/42 42/2/42 49/2/42 50/3/42
f 42/9/43 46/7/43 52/7/43 49/9/43
f 54/3/44 53/2/44 57/2/44 58/3/44
f 50/3/45 49/2/45 53/2/45 54/3/45
f 49/9/46 52/7/46 56/7/46 53/9/46
f 51/5/47 50/3/47 54/3/47 55/5/47
f 59/5/15 58/13/15 57/14/15 60/7/15
f 53/9/48 56/7/48 60/7/48 57/9/48
f 55/5/49 54/3/49 58/3/49 59/5/49
f 56/7/50 55/5/50 59/5/50 60/7/50
f 61/1/51 62/2/51 64/3/51 63/4/51
f 63/4/52 64/3/52 68/5/52 67/6/52
f 67/6/53 68/5/53 66/7/53 65/8/53
f 65/8/54 66/7/54 62/9/54 61/10/54
f 63/11/5 67/6/5 65/8/5 61/12/5
f 68/5/55 64/3/55 70/3/55 71/5/55
f 72/7/56 71/5/56 75/5/56 76/7/56
f 66/7/57 68/5/57 71/5/57 72/7/57
f 64/3/58 62/2/58 69/2/58 70/3/58
f 62/9/59 66/7/59 72/7/59 69/9/59
f 74/3/60 73/2/60 77/2/60 78/3/60
f 70/3/61 69/2/61 73/2/61 74/3/61
f 69/9/62 72/7/62 76/7/62 73/9/62
f 71/5/63 70/3/63 74/3/63 75/5/63
f 79/5/15 78/13/15 77/14/15 80/7/15
f 73/9/64 76/7/64 80/7/64 77/9/64
f 75/5/65 74/3/65 78/3/65 79/5/65
f 76/7/66 75/5/66 79/5/66 80/7/66
f 81/1/67 82/2/67 84/3/67 83/4/67
f 83/4/68 84/3/68 88/5/68 87/6/68
f 87/6/69 88/5/69 86/7/69 85/8/69
f 85/8/70 86/7/70 82/9/70 81/10/70
f 83/11/5 87/6/5 85/8/5 81/12/5
f 88/5/71 84/3/71 90/3/71 91/5/71
f 92/7/72 91/5/72 95/5/72 96/7/72
f 86/7/73 88/5/73 91/5/73 92/7/73
f 84/3/74 82/2/74 89/2/74 90/3/74
f 82/9/75 86/7/75 92/7/75 89/9/75
f 93/9/76 96/7/76 100/7/76 97/9/76
f 90/3/77 89/2/77 93/2/77 94/3/77
f 89/9/78 92/7/78 96/7/78 93/9/78
f 91/5/79 90/3/79 94/3/79 95/5/79
f 99/5/80 98/3/80 102/3/80 103/5/80
f 95/5/81 94/3/81 98/3/81 99/5/81
f 96/7/82 95/5/82 99/5/82 100/7/82
f 94/3/83 93/2/83 97/2/83 98/3/83
f 103/5/15 102/13/15 101/14/15 104/7/15
f 100/7/84 99/5/84 103/5/84 104/7/84
f 98/3/85 97/2/85 101/2/85 102/3/85
f 97/9/86 100/7/86 104/7/86 101/9/86
f 105/1/87 106/2/87 108/3/87 107/4/87
f 107/4/88 108/3/88 112/5/88 111/6/88
f 111/6/89 112/5/89 110/7/89 109/8/89
f 109/8/90 110/7/90 106/9/90 105/10/90
f 107/11/5 111/6/5 109/8/5 105/12/5
f 112/5/91 108/3/91 114/3/91 115/5/91
f 116/7/92 115/5/92 119/5/92 120/7/92
f 110/7/93 112/5/93 115/5/93 116/7/93
f 108/3/94 106/2/94 113/2/94 114/3/94
f 106/9/95 110/7/95 116/7/95 113/9/95
f 118/3/96 117/2/96 121/2/96 122/3/96
f 114/3/97 113/2/97 117/2/97 118/3/97
f 113/9/98 116/7/98 120/7/98 117/9/98
f 115/5/99 114/3/99 118/3/99 119/5/99
f 121/9/100 124/7/100 128/7/100 125/9/100
f 117/9/101 120/7/101 124/7/101 121/9/101
f 119/5/102 118/3/102 122/3/102 123/5/102
f 120/7/103 119/5/103 123/5/103 124/7/103
f 127/5/15 126/13/15 125/14/15 128/7/15
f 123/5/104 122/3/104 126/3/104 127/5/104
f 124/7/105 123/5/105 127/5/105 128/7/105
f 122/3/106 121/2/106 125/2/106 126/3/106
f 129/1/107 130/2/107 132/3/107 131/4/107
f 131/4/108 132/3/108 136/5/108 135/6/108
f 135/6/109 136/5/109 134/7/109 133/8/109
f 133/8/110 134/7/110 130/9/110 129/10/110
f 131/11/5 135/6/5 133/8/5 129/12/5
f 136/5/111 132/3/111 138/3/111 139/5/111
f 140/7/112 139/5/112 143/5/112 144/7/112
f 134/7/113 136/5/113 139/5/113 140/7/113
f 132/3/114 130/2/114 137/2/114 138/3/114
f 130/9/115 134/7/115 140/7/115 137/9/115
f 142/3/116 141/2/116 145/2/116 146/3/116
f 138/3/117 137/2/117 141/2/117 142/3/117
f 137/9/118 140/7/118 144/7/118 141/9/118
f 139/5/119 138/3/119 142/3/119 143/5/119
f 145/9/120 148/7/120 152/7/120 149/9/120
f 141/9/121 144/7/121 148/7/121 145/9/121
f 143/5/122 142/3/122 146/3/122 147/5/122
f 144/7/123 143/5/123 147/5/123 148/7/123
f 151/5/15 150/13/15 149/14/15 152/7/15
f 147/5/124 146/3/124 150/3/124 151/5/124
f 148/7/125 147/5/125 151/5/125 152/7/125
f 146/3/126 145/2/126 149/2/126 150/3/126
f 153/1/127 154/2/127 156/3/127 155/4/127
f 155/4/128 156/3/128 160/5/128 159/6/128
f 159/6/129 160/5/129 158/7/129 157/8/129
f 157/8/130 158/7/130 154/9/130 153/10/130
f 155/11/5 159/6/5 157/8/5 153/12/5
f 156/3/131 154/2/131 161/2/131 162/3/131
f 161/9/132 164/7/132 168/7/132 165/9/132
f 154/9/133 158/7/133 164/7/133 161/9/133
f 160/5/134 156/3/134 162/3/134 163/5/134
f 158/7/135 160/5/135 163/5/135 164/7/135
f 168/7/136 167/5/136 171/5/136 172/7/136
f 163/5/137 162/3/137 166/3/137 167/5/137
f 164/7/138 163/5/138 167/5/138 168/7/138
f 162/3/139 161/2/139 165/2/139 166/3/139
f 171/5/15 170/13/15 169/14/15 172/7/15
f 166/3/140 165/2/140 169/2/140 170/3/140
f 165/9/141 168/7/141 172/7/141 169/9/141
f 167/5/142 166/3/142 170/3/142 171/5/142
f 173/1/107 174/2/107 176/3/107 175/4/107
f 175/4/108 176/3/108 180/5/108 179/6/108
f 179/6/109 180/5/109 178/7/109 177/8/109
f 177/8/110 178/7/110 174/9/110 173/10/110
f 175/11/5 179/6/5 177/8/5 173/12/5
f 178/7/143 180/5/143 183/5/143 184/7/143
f 181/9/144 184/7/144 188/7/144 185/9/144
f 176/3/145 174/2/145 181/2/145 182/3/145
f 174/9/146 178/7/146 184/7/146 181/9/146
f 180/5/147 176/3/147 182/3/147 183/5/147
f 187/5/148 186/3/148 190/3/148 191/5/148
f 183/5/149 182/3/149 186/3/149 187/5/149
f 184/7/150 183/5/150 187/5/150 188/7/150
f 182/3/151 181/2/151 185/2/151 186/3/151
f 191/5/15 190/13/15 189/14/15 192/7/15
f 188/7/152 187/5/152 191/5/152 192/7/152
f 186/3/153 185/2/153 189/2/153 190/3/153
f 185/9/154 188/7/154 192/7/154 189/9/154
f 193/1/155 194/2/155 196/3/155 195/4/155
f 195/4/156 196/3/156 200/5/156 199/6/156
f 199/6/157 200/5/157 198/7/157 197/8/157
f 197/8/158 198/7/158 194/9/158 193/10/158
f 195/11/5 199/6/5 197/8/5 193/12/5
f 200/5/159 196/3/159 202/3/159 203/5/159
f 204/7/160 203/5/160 207/5/160 208/7/160
f 198/7/161 200/5/161 203/5/161 204/7/161
f 196/3/162 194/2/162 201/2/162 202/3/162
f 194/9/163 198/7/163 204/7/163 201/9/163
f 206/3/164 205/2/164 209/2/164 210/3/164
f 202/3/165 201/2/165 205/2/165 206/3/165
f 201/9/166 204/7/166 208/7/166 205/9/166
f 203/5/167 202/3/167 206/3/167 207/5/167
f 211/5/15 210/13/15 209/14/15 212/7/15
f 205/9/168 208/7/168 212/7/168 209/9/168
f 207/5/169 206/3/169 210/3/169 211/5/169
f 208/7/170 207/5/170 211/5/170 212/7/170
