# Blender v3.6.0 OBJ File: 'Mapa_Assets_calle_03.blend'
# www.blender.org
mtllib caja_01.mtl
o caja_Cube.007
v 85.354797 0.105823 0.441475
v 85.354797 2.105823 0.441475
v 85.354797 0.105823 -1.558525
v 85.354797 2.105823 -1.558525
v 87.354797 0.105823 0.441475
v 87.354797 2.105823 0.441475
v 87.354797 0.105823 -1.558525
v 87.354797 2.105823 -1.558525
v 85.354797 1.973896 0.441475
v 85.354797 1.973896 -1.558525
v 87.354797 1.973896 -1.558525
v 87.354797 1.973896 0.441475
v 87.210014 0.105823 -1.558525
v 87.210014 2.105823 -1.558525
v 87.210014 0.105823 0.441475
v 87.210014 2.105823 0.441475
v 87.210014 1.973896 0.441475
v 87.210014 1.973896 -1.558525
v 85.464195 0.105823 -1.558525
v 85.464195 2.105823 0.441475
v 85.464195 1.973896 0.441475
v 85.464195 2.105823 -1.558525
v 85.464195 0.105823 0.441475
v 85.464195 1.973896 -1.558525
v 85.354797 0.255990 -1.558525
v 87.354797 0.255990 -1.558525
v 87.354797 0.255990 0.441475
v 85.354797 0.255990 0.441475
v 87.210014 0.255990 -1.558525
v 87.210014 0.255990 0.441475
v 85.464195 0.255990 -1.558525
v 85.464195 0.255990 0.441475
v 85.354797 0.105823 0.242706
v 85.354797 2.105823 0.242706
v 87.354797 0.105823 0.242706
v 87.354797 2.105823 0.242706
v 87.354797 1.973896 0.242706
v 85.354797 1.973896 0.242706
v 87.210014 2.105823 0.242706
v 87.210014 0.105823 0.242706
v 85.464195 0.105823 0.242706
v 85.464195 2.105823 0.242706
v 85.354797 0.255990 0.242706
v 87.354797 0.255990 0.242706
v 85.354797 2.105823 -1.356597
v 87.354797 0.105823 -1.356597
v 85.354797 1.973896 -1.356597
v 85.354797 0.255990 -1.356597
v 85.354797 0.105823 -1.356597
v 87.354797 2.105823 -1.356597
v 87.354797 1.973896 -1.356597
v 87.210014 2.105823 -1.356597
v 87.210014 0.105823 -1.356597
v 85.464195 0.105823 -1.356597
v 85.464195 2.105823 -1.356597
v 87.354797 0.255990 -1.356597
v 85.532936 1.973896 0.242706
v 85.532936 0.255990 0.242706
v 85.532936 1.973896 -1.356597
v 85.532936 0.255990 -1.356597
v 87.210014 1.973896 0.368752
v 85.464195 1.973896 0.368752
v 87.210014 0.255990 0.368752
v 85.464195 0.255990 0.368752
v 87.210014 1.967549 -1.356597
v 87.210014 1.967549 0.242706
v 85.464195 1.967549 -1.356597
v 85.464195 1.967549 0.242706
v 85.464195 1.973896 -1.415431
v 87.210014 1.973896 -1.415431
v 87.210014 0.255990 -1.415431
v 85.464195 0.255990 -1.415431
v 87.225464 1.973896 -1.356597
v 87.225464 1.973896 0.242706
v 87.225464 0.255990 -1.356597
v 87.225464 0.255990 0.242706
v 87.210014 0.185981 -1.356597
v 87.210014 0.185981 0.242706
v 85.464195 0.185981 -1.356597
v 85.464195 0.185981 0.242706
vt 0.608509 0.224759
vt 0.625000 0.224759
vt 0.625000 0.250000
vt 0.608509 0.250000
vt 0.608509 0.481902
vt 0.625000 0.481902
vt 0.625000 0.500000
vt 0.608509 0.500000
vt 0.608509 0.725154
vt 0.625000 0.725154
vt 0.625000 0.750000
vt 0.608509 0.750000
vt 0.608509 0.986325
vt 0.625000 0.986325
vt 0.625000 1.000000
vt 0.608509 1.000000
vt 0.356902 0.725154
vt 0.375000 0.725154
vt 0.375000 0.750000
vt 0.356902 0.750000
vt 0.861325 0.725154
vt 0.875000 0.725154
vt 0.875000 0.750000
vt 0.861325 0.750000
vt 0.393771 0.986325
vt 0.393771 1.000000
vt 0.393771 0.725154
vt 0.393771 0.750000
vt 0.393771 0.481902
vt 0.393771 0.500000
vt 0.393771 0.224759
vt 0.393771 0.250000
vt 0.393771 0.263675
vt 0.393771 0.263675
vt 0.393771 0.481902
vt 0.608509 0.768098
vt 0.393771 0.768098
vt 0.643098 0.725154
vt 0.643098 0.750000
vt 0.138675 0.725154
vt 0.138675 0.750000
vt 0.625000 0.768098
vt 0.608509 0.263675
vt 0.625000 0.263675
vt 0.125000 0.725154
vt 0.125000 0.750000
vt 0.393771 0.986325
vt 0.608509 0.986325
vt 0.375000 0.768098
vt 0.375000 0.986325
vt 0.375000 0.250000
vt 0.375000 0.263675
vt 0.375000 0.481902
vt 0.375000 0.224759
vt 0.375000 0.500000
vt 0.375000 1.000000
vt 0.375000 0.525241
vt 0.393771 0.525241
vt 0.375000 0.000000
vt 0.393771 0.000000
vt 0.393771 0.024846
vt 0.375000 0.024846
vt 0.643098 0.525241
vt 0.643098 0.525241
vt 0.643098 0.725154
vt 0.125000 0.525241
vt 0.138675 0.525241
vt 0.138675 0.525241
vt 0.138675 0.725154
vt 0.625000 0.525241
vt 0.608509 0.000000
vt 0.608509 0.024846
vt 0.393771 0.725154
vt 0.608509 0.725154
vt 0.861325 0.525241
vt 0.875000 0.525241
vt 0.356902 0.525241
vt 0.608509 0.525241
vt 0.625000 0.000000
vt 0.625000 0.024846
vt 0.356902 0.500000
vt 0.861325 0.500000
vt 0.875000 0.500000
vt 0.643098 0.500000
vt 0.138675 0.500000
vt 0.125000 0.500000
vt 0.608509 0.224759
vt 0.608509 0.024846
vt 0.393771 0.224759
vt 0.393771 0.024846
vt 0.608509 0.768098
vt 0.393771 0.768098
vt 0.861325 0.725154
vt 0.861325 0.525241
vt 0.608509 0.481902
vt 0.608509 0.263675
vt 0.608509 0.525241
vt 0.393771 0.525241
vt 0.356902 0.525241
vt 0.356902 0.725154
vn -1.0000 0.0000 0.0000
vn 0.0000 0.0000 -1.0000
vn 1.0000 0.0000 0.0000
vn 0.0000 0.0000 1.0000
vn 0.0000 -1.0000 0.0000
vn 0.0000 1.0000 0.0000
usemtl Material.012
s off
f 47/1/1 45/2/1 4/3/1 10/4/1
f 18/5/2 14/6/2 8/7/2 11/8/2
f 37/9/3 36/10/3 6/11/3 12/12/3
f 21/13/4 20/14/4 2/15/4 9/16/4
f 40/17/5 35/18/5 5/19/5 15/20/5
f 42/21/6 34/22/6 2/23/6 20/24/6
f 32/25/4 21/13/4 9/16/4 28/26/4
f 44/27/3 37/9/3 12/12/3 27/28/3
f 29/29/2 18/5/2 11/8/2 26/30/2
f 48/31/1 47/1/1 10/4/1 25/32/1
f 29/29/6 31/33/6 72/34/6 71/35/6
f 27/28/4 12/12/4 17/36/4 30/37/4
f 36/10/6 39/38/6 16/39/6 6/11/6
f 41/40/5 40/17/5 15/20/5 23/41/5
f 12/12/4 6/11/4 16/42/4 17/36/4
f 24/43/2 22/44/2 14/6/2 18/5/2
f 10/4/2 4/3/2 22/44/2 24/43/2
f 33/45/5 41/40/5 23/41/5 1/46/5
f 25/32/2 10/4/2 24/43/2 31/33/2
f 21/13/3 32/25/3 64/47/3 62/48/3
f 39/38/6 42/21/6 20/24/6 16/39/6
f 17/36/4 16/42/4 20/14/4 21/13/4
f 15/49/4 30/37/4 32/25/4 23/50/4
f 3/51/2 25/32/2 31/33/2 19/52/2
f 5/19/4 27/28/4 30/37/4 15/49/4
f 19/52/2 31/33/2 29/29/2 13/53/2
f 49/54/1 48/31/1 25/32/1 3/51/1
f 13/53/2 29/29/2 26/30/2 7/55/2
f 35/18/3 44/27/3 27/28/3 5/19/3
f 23/50/4 32/25/4 28/26/4 1/56/4
f 46/57/3 56/58/3 44/27/3 35/18/3
f 1/59/1 28/60/1 43/61/1 33/62/1
f 39/38/1 52/63/1 65/64/1 66/65/1
f 49/66/5 54/67/5 41/40/5 33/45/5
f 41/40/3 54/67/3 79/68/3 80/69/3
f 50/70/6 52/63/6 39/38/6 36/10/6
f 28/60/1 9/71/1 38/72/1 43/61/1
f 37/9/2 44/27/2 76/73/2 74/74/2
f 55/75/6 45/76/6 34/22/6 42/21/6
f 53/77/5 46/57/5 35/18/5 40/17/5
f 51/78/3 50/70/3 36/10/3 37/9/3
f 9/71/1 2/79/1 34/80/1 38/72/1
f 11/8/3 8/7/3 50/70/3 51/78/3
f 13/81/5 7/55/5 46/57/5 53/77/5
f 22/82/6 4/83/6 45/76/6 55/75/6
f 26/30/3 11/8/3 51/78/3 56/58/3
f 8/7/6 14/84/6 52/63/6 50/70/6
f 19/85/5 13/81/5 53/77/5 54/67/5
f 3/86/5 19/85/5 54/67/5 49/66/5
f 14/84/6 22/82/6 55/75/6 52/63/6
f 7/55/3 26/30/3 56/58/3 46/57/3
f 33/62/1 43/61/1 48/31/1 49/54/1
f 38/72/5 47/1/5 59/87/5 57/88/5
f 38/72/1 34/80/1 45/2/1 47/1/1
f 47/1/4 48/31/4 60/89/4 59/87/4
f 43/61/2 38/72/2 57/88/2 58/90/2
f 48/31/6 43/61/6 58/90/6 60/89/6
f 30/37/1 17/36/1 61/91/1 63/92/1
f 17/36/5 21/13/5 62/48/5 61/91/5
f 32/25/6 30/37/6 63/92/6 64/47/6
f 55/75/3 42/21/3 68/93/3 67/94/3
f 42/21/2 39/38/2 66/65/2 68/93/2
f 52/63/4 55/75/4 67/94/4 65/64/4
f 24/43/5 18/5/5 70/95/5 69/96/5
f 31/33/3 24/43/3 69/96/3 72/34/3
f 18/5/1 29/29/1 71/35/1 70/95/1
f 56/58/4 51/78/4 73/97/4 75/98/4
f 51/78/5 37/9/5 74/74/5 73/97/5
f 44/27/6 56/58/6 75/98/6 76/73/6
f 54/67/4 53/77/4 77/99/4 79/68/4
f 53/77/1 40/17/1 78/100/1 77/99/1
f 40/17/2 41/40/2 80/69/2 78/100/2
usemtl Material.024
f 58/90/1 57/88/1 59/87/1 60/89/1
f 63/92/4 61/91/4 62/48/4 64/47/4
f 65/64/6 67/94/6 68/93/6 66/65/6
f 72/34/2 69/96/2 70/95/2 71/35/2
f 75/98/3 73/97/3 74/74/3 76/73/3
f 79/68/5 77/99/5 78/100/5 80/69/5
