# Blender v3.6.0 OBJ File: 'Mapa_Assets_calle_03.blend'
# www.blender.org
mtllib Lego_01.mtl
o lego_Cylinder.003
v 65.147079 2.250868 -0.974295
v 65.147079 2.693045 -0.974295
v 65.381332 2.250868 -0.898182
v 65.381332 2.693045 -0.898182
v 65.526108 2.250868 -0.698915
v 65.526108 2.693045 -0.698915
v 65.526108 2.250868 -0.452608
v 65.526108 2.693045 -0.452608
v 65.381332 2.250868 -0.253342
v 65.381332 2.693045 -0.253342
v 65.147079 2.250868 -0.177228
v 65.147079 2.693045 -0.177228
v 64.912827 2.250868 -0.253342
v 64.912827 2.693045 -0.253342
v 64.768051 2.250868 -0.452608
v 64.768051 2.693045 -0.452608
v 64.768051 2.250868 -0.698915
v 64.768051 2.693045 -0.698915
v 64.912827 2.250868 -0.898182
v 64.912827 2.693045 -0.898182
v 62.151115 0.312663 0.820526
v 61.991673 2.312663 0.903919
v 62.151115 0.312663 -1.012687
v 61.991673 2.312663 -1.096081
v 65.656151 0.312663 0.820526
v 65.815598 2.312663 0.903919
v 65.656151 0.312663 -1.012687
v 65.815598 2.312663 -1.096081
v 61.991673 0.312663 -1.096081
v 61.991673 0.312663 0.903919
v 65.815598 0.312663 -1.096081
v 65.815598 0.312663 0.903919
v 62.151115 1.427166 -1.012687
v 62.151115 1.427166 0.820526
v 65.656151 1.427166 -1.012687
v 65.656151 1.427166 0.820526
v 62.776760 2.250868 -0.974295
v 62.776760 2.693044 -0.974295
v 63.011013 2.250868 -0.898182
v 63.011013 2.693044 -0.898182
v 63.155788 2.250868 -0.698915
v 63.155788 2.693044 -0.698915
v 63.155788 2.250868 -0.452608
v 63.155788 2.693044 -0.452608
v 63.011013 2.250868 -0.253342
v 63.011013 2.693044 -0.253342
v 62.776760 2.250868 -0.177229
v 62.776760 2.693044 -0.177229
v 62.542511 2.250868 -0.253342
v 62.542511 2.693044 -0.253342
v 62.397736 2.250868 -0.452608
v 62.397736 2.693044 -0.452608
v 62.397736 2.250868 -0.698915
v 62.397736 2.693044 -0.698915
v 62.542511 2.250868 -0.898182
v 62.542511 2.693044 -0.898182
v 63.923061 2.250868 -0.974295
v 63.923061 2.693044 -0.974295
v 64.157318 2.250868 -0.898182
v 64.157318 2.693044 -0.898182
v 64.302094 2.250868 -0.698915
v 64.302094 2.693044 -0.698915
v 64.302094 2.250868 -0.452608
v 64.302094 2.693044 -0.452608
v 64.157318 2.250868 -0.253342
v 64.157318 2.693044 -0.253342
v 63.923061 2.250868 -0.177229
v 63.923061 2.693044 -0.177229
v 63.688812 2.250868 -0.253342
v 63.688812 2.693044 -0.253342
v 63.544037 2.250868 -0.452608
v 63.544037 2.693044 -0.452608
v 63.544037 2.250868 -0.698915
v 63.544037 2.693044 -0.698915
v 63.688812 2.250868 -0.898182
v 63.688812 2.693044 -0.898182
v 65.147079 2.250868 0.006861
v 65.147079 2.693044 0.006861
v 65.381332 2.250868 0.082974
v 65.381332 2.693044 0.082974
v 65.526108 2.250868 0.282241
v 65.526108 2.693044 0.282241
v 65.526108 2.250868 0.528548
v 65.526108 2.693044 0.528548
v 65.381332 2.250868 0.727815
v 65.381332 2.693044 0.727815
v 65.147079 2.250868 0.803928
v 65.147079 2.693044 0.803928
v 64.912827 2.250868 0.727815
v 64.912827 2.693044 0.727815
v 64.768051 2.250868 0.528548
v 64.768051 2.693044 0.528548
v 64.768051 2.250868 0.282241
v 64.768051 2.693044 0.282241
v 64.912827 2.250868 0.082974
v 64.912827 2.693044 0.082974
v 63.923061 2.250868 0.006861
v 63.923061 2.693044 0.006861
v 64.157318 2.250868 0.082974
v 64.157318 2.693044 0.082974
v 64.302094 2.250868 0.282241
v 64.302094 2.693044 0.282241
v 64.302094 2.250868 0.528548
v 64.302094 2.693044 0.528548
v 64.157318 2.250868 0.727815
v 64.157318 2.693044 0.727815
v 63.923061 2.250868 0.803928
v 63.923061 2.693044 0.803928
v 63.688812 2.250868 0.727815
v 63.688812 2.693044 0.727815
v 63.544037 2.250868 0.528548
v 63.544037 2.693044 0.528548
v 63.544037 2.250868 0.282241
v 63.544037 2.693044 0.282241
v 63.688812 2.250868 0.082974
v 63.688812 2.693044 0.082974
v 62.776760 2.250868 0.006861
v 62.776760 2.693044 0.006861
v 63.011013 2.250868 0.082974
v 63.011013 2.693044 0.082974
v 63.155788 2.250868 0.282241
v 63.155788 2.693044 0.282241
v 63.155788 2.250868 0.528548
v 63.155788 2.693044 0.528548
v 63.011013 2.250868 0.727815
v 63.011013 2.693044 0.727815
v 62.776760 2.250868 0.803928
v 62.776760 2.693044 0.803928
v 62.542511 2.250868 0.727815
v 62.542511 2.693044 0.727815
v 62.397736 2.250868 0.528548
v 62.397736 2.693044 0.528548
v 62.397736 2.250868 0.282241
v 62.397736 2.693044 0.282241
v 62.542511 2.250868 0.082974
v 62.542511 2.693044 0.082974
vt 1.000000 0.500000
vt 1.000000 1.000000
vt 0.900000 1.000000
vt 0.900000 0.500000
vt 0.800000 1.000000
vt 0.800000 0.500000
vt 0.700000 1.000000
vt 0.700000 0.500000
vt 0.600000 1.000000
vt 0.600000 0.500000
vt 0.500000 1.000000
vt 0.500000 0.500000
vt 0.400000 1.000000
vt 0.400000 0.500000
vt 0.300000 1.000000
vt 0.300000 0.500000
vt 0.200000 1.000000
vt 0.200000 0.500000
vt 0.391068 0.444164
vt 0.250000 0.490000
vt 0.108932 0.444164
vt 0.021746 0.324164
vt 0.021746 0.175836
vt 0.108932 0.055836
vt 0.250000 0.010000
vt 0.391068 0.055836
vt 0.478254 0.175836
vt 0.478254 0.324164
vt 0.100000 1.000000
vt 0.100000 0.500000
vt -0.000000 1.000000
vt -0.000000 0.500000
vt 0.750000 0.490000
vt 0.891068 0.444164
vt 0.978254 0.324164
vt 0.978254 0.175836
vt 0.891068 0.055836
vt 0.750000 0.010000
vt 0.608932 0.055836
vt 0.521746 0.175836
vt 0.521746 0.324164
vt 0.608932 0.444164
vt 0.375000 0.000000
vt 0.625000 0.000000
vt 0.625000 0.250000
vt 0.375000 0.250000
vt 0.625000 0.500000
vt 0.375000 0.500000
vt 0.625000 0.750000
vt 0.375000 0.750000
vt 0.625000 1.000000
vt 0.375000 1.000000
vt 0.364576 0.510424
vt 0.364576 0.739576
vt 0.364576 0.739576
vt 0.364576 0.510424
vt 0.875000 0.500000
vt 0.875000 0.750000
vt 0.135424 0.510424
vt 0.135424 0.739576
vt 0.125000 0.750000
vt 0.125000 0.500000
vt 0.135424 0.510424
vt 0.135424 0.739576
vt 1.000000 0.500000
vt 1.000000 1.000000
vt 0.900000 1.000000
vt 0.900000 0.500000
vt 0.800000 1.000000
vt 0.800000 0.500000
vt 0.700000 1.000000
vt 0.700000 0.500000
vt 0.600000 1.000000
vt 0.600000 0.500000
vt 0.500000 1.000000
vt 0.500000 0.500000
vt 0.400000 1.000000
vt 0.400000 0.500000
vt 0.300000 1.000000
vt 0.300000 0.500000
vt 0.200000 1.000000
vt 0.200000 0.500000
vt 0.391068 0.444164
vt 0.250000 0.490000
vt 0.108932 0.444164
vt 0.021746 0.324164
vt 0.021746 0.175836
vt 0.108932 0.055836
vt 0.250000 0.010000
vt 0.391068 0.055836
vt 0.478254 0.175836
vt 0.478254 0.324164
vt 0.100000 1.000000
vt 0.100000 0.500000
vt -0.000000 1.000000
vt -0.000000 0.500000
vt 0.750000 0.490000
vt 0.891068 0.444164
vt 0.978254 0.324164
vt 0.978254 0.175836
vt 0.891068 0.055836
vt 0.750000 0.010000
vt 0.608932 0.055836
vt 0.521746 0.175836
vt 0.521746 0.324164
vt 0.608932 0.444164
vt 1.000000 0.500000
vt 1.000000 1.000000
vt 0.900000 1.000000
vt 0.900000 0.500000
vt 0.800000 1.000000
vt 0.800000 0.500000
vt 0.700000 1.000000
vt 0.700000 0.500000
vt 0.600000 1.000000
vt 0.600000 0.500000
vt 0.500000 1.000000
vt 0.500000 0.500000
vt 0.400000 1.000000
vt 0.400000 0.500000
vt 0.300000 1.000000
vt 0.300000 0.500000
vt 0.200000 1.000000
vt 0.200000 0.500000
vt 0.391068 0.444164
vt 0.250000 0.490000
vt 0.108932 0.444164
vt 0.021746 0.324164
vt 0.021746 0.175836
vt 0.108932 0.055836
vt 0.250000 0.010000
vt 0.391068 0.055836
vt 0.478254 0.175836
vt 0.478254 0.324164
vt 0.100000 1.000000
vt 0.100000 0.500000
vt -0.000000 1.000000
vt -0.000000 0.500000
vt 0.750000 0.490000
vt 0.891068 0.444164
vt 0.978254 0.324164
vt 0.978254 0.175836
vt 0.891068 0.055836
vt 0.750000 0.010000
vt 0.608932 0.055836
vt 0.521746 0.175836
vt 0.521746 0.324164
vt 0.608932 0.444164
vt 1.000000 0.500000
vt 1.000000 1.000000
vt 0.900000 1.000000
vt 0.900000 0.500000
vt 0.800000 1.000000
vt 0.800000 0.500000
vt 0.700000 1.000000
vt 0.700000 0.500000
vt 0.600000 1.000000
vt 0.600000 0.500000
vt 0.500000 1.000000
vt 0.500000 0.500000
vt 0.400000 1.000000
vt 0.400000 0.500000
vt 0.300000 1.000000
vt 0.300000 0.500000
vt 0.200000 1.000000
vt 0.200000 0.500000
vt 0.391068 0.444164
vt 0.250000 0.490000
vt 0.108932 0.444164
vt 0.021746 0.324164
vt 0.021746 0.175836
vt 0.108932 0.055836
vt 0.250000 0.010000
vt 0.391068 0.055836
vt 0.478254 0.175836
vt 0.478254 0.324164
vt 0.100000 1.000000
vt 0.100000 0.500000
vt -0.000000 1.000000
vt -0.000000 0.500000
vt 0.750000 0.490000
vt 0.891068 0.444164
vt 0.978254 0.324164
vt 0.978254 0.175836
vt 0.891068 0.055836
vt 0.750000 0.010000
vt 0.608932 0.055836
vt 0.521746 0.175836
vt 0.521746 0.324164
vt 0.608932 0.444164
vt 1.000000 0.500000
vt 1.000000 1.000000
vt 0.900000 1.000000
vt 0.900000 0.500000
vt 0.800000 1.000000
vt 0.800000 0.500000
vt 0.700000 1.000000
vt 0.700000 0.500000
vt 0.600000 1.000000
vt 0.600000 0.500000
vt 0.500000 1.000000
vt 0.500000 0.500000
vt 0.400000 1.000000
vt 0.400000 0.500000
vt 0.300000 1.000000
vt 0.300000 0.500000
vt 0.200000 1.000000
vt 0.200000 0.500000
vt 0.391068 0.444164
vt 0.250000 0.490000
vt 0.108932 0.444164
vt 0.021746 0.324164
vt 0.021746 0.175836
vt 0.108932 0.055836
vt 0.250000 0.010000
vt 0.391068 0.055836
vt 0.478254 0.175836
vt 0.478254 0.324164
vt 0.100000 1.000000
vt 0.100000 0.500000
vt -0.000000 1.000000
vt -0.000000 0.500000
vt 0.750000 0.490000
vt 0.891068 0.444164
vt 0.978254 0.324164
vt 0.978254 0.175836
vt 0.891068 0.055836
vt 0.750000 0.010000
vt 0.608932 0.055836
vt 0.521746 0.175836
vt 0.521746 0.324164
vt 0.608932 0.444164
vt 1.000000 0.500000
vt 1.000000 1.000000
vt 0.900000 1.000000
vt 0.900000 0.500000
vt 0.800000 1.000000
vt 0.800000 0.500000
vt 0.700000 1.000000
vt 0.700000 0.500000
vt 0.600000 1.000000
vt 0.600000 0.500000
vt 0.500000 1.000000
vt 0.500000 0.500000
vt 0.400000 1.000000
vt 0.400000 0.500000
vt 0.300000 1.000000
vt 0.300000 0.500000
vt 0.200000 1.000000
vt 0.200000 0.500000
vt 0.391068 0.444164
vt 0.250000 0.490000
vt 0.108932 0.444164
vt 0.021746 0.324164
vt 0.021746 0.175836
vt 0.108932 0.055836
vt 0.250000 0.010000
vt 0.391068 0.055836
vt 0.478254 0.175836
vt 0.478254 0.324164
vt 0.100000 1.000000
vt 0.100000 0.500000
vt -0.000000 1.000000
vt -0.000000 0.500000
vt 0.750000 0.490000
vt 0.891068 0.444164
vt 0.978254 0.324164
vt 0.978254 0.175836
vt 0.891068 0.055836
vt 0.750000 0.010000
vt 0.608932 0.055836
vt 0.521746 0.175836
vt 0.521746 0.324164
vt 0.608932 0.444164
vn 0.3090 0.0000 -0.9511
vn 0.8090 0.0000 -0.5878
vn 1.0000 0.0000 0.0000
vn 0.8090 0.0000 0.5878
vn 0.3090 0.0000 0.9511
vn -0.3090 0.0000 0.9511
vn -0.8090 0.0000 0.5878
vn -1.0000 0.0000 0.0000
vn 0.0000 1.0000 -0.0000
vn -0.8090 0.0000 -0.5878
vn -0.3090 0.0000 -0.9511
vn 0.0000 -1.0000 0.0000
vn 0.0000 0.0000 -1.0000
vn 0.0000 0.0000 1.0000
usemtl Material.016
s off
f 1/1/1 2/2/1 4/3/1 3/4/1
f 3/4/2 4/3/2 6/5/2 5/6/2
f 5/6/3 6/5/3 8/7/3 7/8/3
f 7/8/4 8/7/4 10/9/4 9/10/4
f 9/10/5 10/9/5 12/11/5 11/12/5
f 11/12/6 12/11/6 14/13/6 13/14/6
f 13/14/7 14/13/7 16/15/7 15/16/7
f 15/16/8 16/15/8 18/17/8 17/18/8
f 4/19/9 2/20/9 20/21/9 18/22/9 16/23/9 14/24/9 12/25/9 10/26/9 8/27/9 6/28/9
f 17/18/10 18/17/10 20/29/10 19/30/10
f 19/30/11 20/29/11 2/31/11 1/32/11
f 1/33/12 3/34/12 5/35/12 7/36/12 9/37/12 11/38/12 13/39/12 15/40/12 17/41/12 19/42/12
f 30/43/8 22/44/8 24/45/8 29/46/8
f 29/46/13 24/45/13 28/47/13 31/48/13
f 31/48/3 28/47/3 26/49/3 32/50/3
f 32/50/14 26/49/14 22/51/14 30/52/14
f 27/53/8 25/54/8 36/55/8 35/56/8
f 28/47/9 24/57/9 22/58/9 26/49/9
f 23/59/12 21/60/12 30/61/12 29/62/12
f 27/53/12 23/59/12 29/62/12 31/48/12
f 25/54/12 27/53/12 31/48/12 32/50/12
f 21/60/12 25/54/12 32/50/12 30/61/12
f 33/63/12 35/56/12 36/55/12 34/64/12
f 21/60/3 23/59/3 33/63/3 34/64/3
f 25/54/13 21/60/13 34/64/13 36/55/13
f 23/59/14 27/53/14 35/56/14 33/63/14
f 37/65/1 38/66/1 40/67/1 39/68/1
f 39/68/2 40/67/2 42/69/2 41/70/2
f 41/70/3 42/69/3 44/71/3 43/72/3
f 43/72/4 44/71/4 46/73/4 45/74/4
f 45/74/5 46/73/5 48/75/5 47/76/5
f 47/76/6 48/75/6 50/77/6 49/78/6
f 49/78/7 50/77/7 52/79/7 51/80/7
f 51/80/8 52/79/8 54/81/8 53/82/8
f 40/83/9 38/84/9 56/85/9 54/86/9 52/87/9 50/88/9 48/89/9 46/90/9 44/91/9 42/92/9
f 53/82/10 54/81/10 56/93/10 55/94/10
f 55/94/11 56/93/11 38/95/11 37/96/11
f 37/97/12 39/98/12 41/99/12 43/100/12 45/101/12 47/102/12 49/103/12 51/104/12 53/105/12 55/106/12
f 57/107/1 58/108/1 60/109/1 59/110/1
f 59/110/2 60/109/2 62/111/2 61/112/2
f 61/112/3 62/111/3 64/113/3 63/114/3
f 63/114/4 64/113/4 66/115/4 65/116/4
f 65/116/5 66/115/5 68/117/5 67/118/5
f 67/118/6 68/117/6 70/119/6 69/120/6
f 69/120/7 70/119/7 72/121/7 71/122/7
f 71/122/8 72/121/8 74/123/8 73/124/8
f 60/125/9 58/126/9 76/127/9 74/128/9 72/129/9 70/130/9 68/131/9 66/132/9 64/133/9 62/134/9
f 73/124/10 74/123/10 76/135/10 75/136/10
f 75/136/11 76/135/11 58/137/11 57/138/11
f 57/139/12 59/140/12 61/141/12 63/142/12 65/143/12 67/144/12 69/145/12 71/146/12 73/147/12 75/148/12
f 77/149/1 78/150/1 80/151/1 79/152/1
f 79/152/2 80/151/2 82/153/2 81/154/2
f 81/154/3 82/153/3 84/155/3 83/156/3
f 83/156/4 84/155/4 86/157/4 85/158/4
f 85/158/5 86/157/5 88/159/5 87/160/5
f 87/160/6 88/159/6 90/161/6 89/162/6
f 89/162/7 90/161/7 92/163/7 91/164/7
f 91/164/8 92/163/8 94/165/8 93/166/8
f 80/167/9 78/168/9 96/169/9 94/170/9 92/171/9 90/172/9 88/173/9 86/174/9 84/175/9 82/176/9
f 93/166/10 94/165/10 96/177/10 95/178/10
f 95/178/11 96/177/11 78/179/11 77/180/11
f 77/181/12 79/182/12 81/183/12 83/184/12 85/185/12 87/186/12 89/187/12 91/188/12 93/189/12 95/190/12
f 97/191/1 98/192/1 100/193/1 99/194/1
f 99/194/2 100/193/2 102/195/2 101/196/2
f 101/196/3 102/195/3 104/197/3 103/198/3
f 103/198/4 104/197/4 106/199/4 105/200/4
f 105/200/5 106/199/5 108/201/5 107/202/5
f 107/202/6 108/201/6 110/203/6 109/204/6
f 109/204/7 110/203/7 112/205/7 111/206/7
f 111/206/8 112/205/8 114/207/8 113/208/8
f 100/209/9 98/210/9 116/211/9 114/212/9 112/213/9 110/214/9 108/215/9 106/216/9 104/217/9 102/218/9
f 113/208/10 114/207/10 116/219/10 115/220/10
f 115/220/11 116/219/11 98/221/11 97/222/11
f 97/223/12 99/224/12 101/225/12 103/226/12 105/227/12 107/228/12 109/229/12 111/230/12 113/231/12 115/232/12
f 117/233/1 118/234/1 120/235/1 119/236/1
f 119/236/2 120/235/2 122/237/2 121/238/2
f 121/238/3 122/237/3 124/239/3 123/240/3
f 123/240/4 124/239/4 126/241/4 125/242/4
f 125/242/5 126/241/5 128/243/5 127/244/5
f 127/244/6 128/243/6 130/245/6 129/246/6
f 129/246/7 130/245/7 132/247/7 131/248/7
f 131/248/8 132/247/8 134/249/8 133/250/8
f 120/251/9 118/252/9 136/253/9 134/254/9 132/255/9 130/256/9 128/257/9 126/258/9 124/259/9 122/260/9
f 133/250/10 134/249/10 136/261/10 135/262/10
f 135/262/11 136/261/11 118/263/11 117/264/11
f 117/265/12 119/266/12 121/267/12 123/268/12 125/269/12 127/270/12 129/271/12 131/272/12 133/273/12 135/274/12
