# Blender v3.6.0 OBJ File: 'Mapa_Assets_calle_03.blend'
# www.blender.org
mtllib Tambor_01.mtl
o Cylinder_Cylinder.007
v 79.710068 0.140887 -2.360811
v 79.710068 2.650466 -2.360811
v 81.131645 0.140887 -1.898913
v 81.131645 2.650466 -1.898913
v 82.010231 0.140887 -0.689646
v 82.010231 2.650466 -0.689646
v 82.010231 0.140887 0.805089
v 82.010231 2.650466 0.805089
v 81.131645 0.140887 2.014355
v 81.131645 2.650466 2.014355
v 79.710068 0.140887 2.476254
v 79.710068 2.650466 2.476254
v 78.288490 0.140887 2.014355
v 78.288490 2.650466 2.014355
v 77.409904 0.140887 0.805089
v 77.409904 2.650466 0.805089
v 77.409904 0.140887 -0.689646
v 77.409904 2.650466 -0.689646
v 78.288490 0.140887 -1.898913
v 78.288490 2.650466 -1.898913
v 79.710068 0.140887 -2.635273
v 81.292969 0.140887 -2.120957
v 81.292969 2.650466 -2.120957
v 79.710068 2.650466 -2.635273
v 82.271255 0.140887 -0.774460
v 82.271255 2.650466 -0.774460
v 82.271255 0.140887 0.889902
v 82.271255 2.650466 0.889902
v 81.292969 0.140887 2.236400
v 81.292969 2.650466 2.236400
v 79.710068 0.140887 2.750716
v 79.710068 2.650466 2.750716
v 78.127167 0.140887 2.236400
v 78.127167 2.650466 2.236400
v 77.148880 0.140887 0.889902
v 77.148880 2.650466 0.889902
v 77.148880 0.140887 -0.774460
v 77.148880 2.650466 -0.774460
v 78.127167 0.140887 -2.120957
v 78.127167 2.650466 -2.120957
v 81.131645 2.498097 -1.898913
v 79.710068 2.498097 -2.360811
v 82.010231 2.498097 -0.689646
v 82.010231 2.498097 0.805089
v 81.131645 2.498097 2.014355
v 79.710068 2.498097 2.476254
v 78.288490 2.498097 2.014355
v 77.409904 2.498097 0.805089
v 77.409904 2.498097 -0.689646
v 78.288490 2.498097 -1.898913
v 79.710068 0.294742 -2.360811
v 81.131645 0.294742 -1.898913
v 82.010231 0.294742 -0.689646
v 82.010231 0.294742 0.805089
v 81.131645 0.294742 2.014355
v 79.710068 0.294742 2.476254
v 78.288490 0.294742 2.014355
v 77.409904 0.294742 0.805089
v 77.409904 0.294742 -0.689646
v 78.288490 0.294742 -1.898913
v 79.710068 2.269848 -2.635273
v 81.292969 2.269848 -2.120957
v 82.271255 2.269848 -0.774460
v 82.271255 2.269848 0.889902
v 81.292969 2.269848 2.236400
v 79.710068 2.269848 2.750716
v 78.127167 2.269848 2.236400
v 77.148880 2.269848 0.889902
v 77.148880 2.269848 -0.774460
v 78.127167 2.269848 -2.120957
v 81.292969 0.440024 -2.120957
v 82.271255 0.440024 -0.774460
v 82.271255 0.440024 0.889902
v 81.292969 0.440024 2.236400
v 79.710068 0.440024 2.750716
v 78.127167 0.440024 2.236400
v 77.148880 0.440024 0.889902
v 77.148880 0.440024 -0.774460
v 78.127167 0.440024 -2.120957
v 79.710068 0.440023 -2.635273
v 79.710068 1.256407 -2.635273
v 81.292969 1.256407 -2.120957
v 82.271255 1.256407 -0.774460
v 82.271255 1.256407 0.889902
v 81.292969 1.256407 2.236400
v 79.710068 1.256407 2.750716
v 78.127167 1.256407 2.236400
v 77.148880 1.256407 0.889902
v 77.148880 1.256407 -0.774460
v 78.127167 1.256407 -2.120957
v 79.710068 1.509767 -2.635273
v 81.292969 1.509767 -2.120957
v 82.271255 1.509767 -0.774460
v 82.271255 1.509767 0.889902
v 81.292969 1.509767 2.236400
v 79.710068 1.509767 2.750716
v 78.127167 1.509767 2.236400
v 77.148880 1.509767 0.889902
v 77.148880 1.509767 -0.774460
v 78.127167 1.509767 -2.120957
v 79.710068 2.343044 -2.635273
v 81.292969 2.343044 -2.120957
v 82.271255 2.343044 -0.774460
v 82.271255 2.343044 0.889902
v 81.292969 2.343044 2.236400
v 79.710068 2.343044 2.750716
v 78.127167 2.343044 2.236400
v 77.148880 2.343044 0.889902
v 77.148880 2.343044 -0.774460
v 78.127167 2.343044 -2.120957
v 81.292969 0.395153 -2.120957
v 82.271255 0.395153 -0.774460
v 82.271255 0.395153 0.889902
v 81.292969 0.395153 2.236400
v 79.710068 0.395153 2.750716
v 78.127167 0.395153 2.236400
v 77.148880 0.395153 0.889902
v 77.148880 0.395153 -0.774460
v 78.127167 0.395153 -2.120957
v 79.710068 0.395153 -2.635273
v 79.764763 2.269848 2.582372
v 78.181862 2.269848 2.068055
v 79.764763 1.509767 2.582372
v 78.181862 1.509767 2.068055
v 81.257713 2.269848 2.127895
v 79.674812 2.269848 2.642212
v 81.257713 1.509767 2.127895
v 79.674812 1.509767 2.642212
v 82.162468 2.269848 0.810860
v 81.184181 2.269848 2.157357
v 82.162468 1.509767 0.810860
v 81.184181 1.509767 2.157357
v 82.183899 2.269848 -0.774460
v 82.183899 2.269848 0.889902
v 82.183899 1.509767 -0.774460
v 82.183899 1.509767 0.889902
v 81.216797 2.269848 -2.065611
v 82.195084 2.269848 -0.719114
v 81.216797 1.509767 -2.065611
v 82.195084 1.509767 -0.719114
v 79.683586 1.509767 -2.553763
v 79.683586 2.269848 -2.553763
v 81.266487 2.269848 -2.039447
v 81.266487 1.509767 -2.039447
v 79.753670 1.509767 -2.501073
v 79.753670 2.269848 -2.501073
v 78.170769 2.269848 -1.986757
v 78.170769 1.509767 -1.986757
v 77.238022 2.269848 -0.709694
v 78.216309 2.269848 -2.056191
v 77.238022 1.509767 -0.709694
v 78.216309 1.509767 -2.056191
v 77.259140 2.269848 0.889902
v 77.259140 2.269848 -0.774460
v 77.259140 1.509767 0.889902
v 77.259140 1.509767 -0.774460
v 78.212692 2.269848 2.174258
v 77.234406 2.269848 0.827761
v 78.212692 1.509767 2.174258
v 77.234406 1.509767 0.827761
v 78.178902 1.256407 2.198812
v 78.178902 0.440024 2.198812
v 77.200615 1.256407 0.852315
v 77.200615 0.440024 0.852315
v 79.754990 1.256407 2.612451
v 79.754990 0.440024 2.612451
v 78.172089 1.256407 2.098135
v 78.172089 0.440024 2.098135
v 77.333160 1.256407 0.889902
v 77.333160 0.440024 0.889902
v 77.333160 1.256407 -0.774460
v 77.333160 0.440024 -0.774460
v 77.267235 1.256407 -0.688468
v 77.267235 0.440024 -0.688468
v 78.245522 1.256407 -2.034965
v 78.245522 0.440024 -2.034965
v 78.159088 1.256407 -2.022701
v 78.159088 0.440024 -2.022701
v 79.741997 0.440023 -2.537017
v 79.741997 1.256407 -2.537017
v 81.265991 1.256407 -2.037924
v 81.265991 0.440024 -2.037924
v 79.683090 0.440023 -2.552240
v 79.683090 1.256407 -2.552240
v 81.250031 1.256407 -2.089760
v 81.250031 0.440024 -2.089760
v 82.228317 1.256407 -0.743263
v 82.228317 0.440024 -0.743263
v 82.184746 1.256407 0.827049
v 82.184746 0.440024 0.827049
v 81.206459 1.256407 2.173547
v 81.206459 0.440024 2.173547
v 82.190948 1.256407 -0.774460
v 82.190948 0.440024 -0.774460
v 82.190948 1.256407 0.889902
v 82.190948 0.440024 0.889902
v 81.257294 1.256407 2.126600
v 81.257294 0.440024 2.126600
v 79.674393 1.256407 2.640916
v 79.674393 0.440024 2.640916
vt 1.000000 0.938750
vt 1.000000 1.000000
vt 0.900000 1.000000
vt 0.900000 0.938750
vt 0.800000 1.000000
vt 0.800000 0.938750
vt 0.700000 1.000000
vt 0.700000 0.938750
vt 0.600000 1.000000
vt 0.600000 0.938750
vt 0.500000 1.000000
vt 0.500000 0.938750
vt 0.400000 1.000000
vt 0.400000 0.938750
vt 0.300000 1.000000
vt 0.300000 0.938750
vt 0.200000 1.000000
vt 0.200000 0.938750
vt 0.250000 0.465540
vt 0.123309 0.424376
vt 0.123309 0.424376
vt 0.250000 0.465540
vt 0.100000 1.000000
vt 0.100000 0.938750
vt -0.000000 1.000000
vt -0.000000 0.938750
vt 0.623309 0.075625
vt 0.545009 0.183395
vt 0.545009 0.183395
vt 0.623309 0.075625
vt 0.876691 0.424376
vt 0.750000 0.465540
vt 0.750000 0.490000
vt 0.891068 0.444164
vt 0.376691 0.424376
vt 0.391068 0.444164
vt 0.250000 0.490000
vt 0.954991 0.316606
vt 0.978254 0.324164
vt 0.454991 0.316606
vt 0.478254 0.324164
vt 0.954991 0.183395
vt 0.978254 0.175836
vt 0.454991 0.183395
vt 0.478254 0.175836
vt 0.876691 0.075625
vt 0.891068 0.055836
vt 0.376691 0.075625
vt 0.391068 0.055836
vt 0.750000 0.034460
vt 0.750000 0.010000
vt 0.250000 0.034460
vt 0.250000 0.010000
vt 0.608932 0.055836
vt 0.123309 0.075625
vt 0.108932 0.055836
vt 0.521746 0.175836
vt 0.045009 0.183395
vt 0.021746 0.175836
vt 0.545009 0.316606
vt 0.521746 0.324164
vt 0.045009 0.316606
vt 0.021746 0.324164
vt 0.623309 0.424376
vt 0.608932 0.444164
vt 0.108932 0.444164
vt 0.376691 0.075625
vt 0.250000 0.034460
vt 0.123309 0.075625
vt 0.045009 0.183395
vt 0.376691 0.424376
vt 0.454991 0.316606
vt 0.045009 0.316606
vt 0.454991 0.183395
vt 0.954991 0.316606
vt 0.876691 0.424376
vt 0.623309 0.424376
vt 0.545009 0.316606
vt 0.876691 0.075625
vt 0.954991 0.183395
vt 0.750000 0.034460
vt 0.750000 0.465540
vt 0.100000 0.924167
vt -0.000000 0.924167
vt -0.000000 0.924167
vt 0.100000 0.924167
vt 0.200000 0.772731
vt 0.200000 0.924167
vt 0.200000 0.924167
vt 0.200000 0.772731
vt 0.200000 0.772731
vt 0.200000 0.924167
vt 0.300000 0.772731
vt 0.400000 0.772731
vt 0.400000 0.772731
vt 0.300000 0.772731
vt 0.500000 0.772731
vt 0.500000 0.924167
vt 0.500000 0.924167
vt 0.500000 0.772731
vt 0.500000 0.772731
vt 0.500000 0.924167
vt 0.700000 0.772731
vt 0.700000 0.924167
vt 0.700000 0.924167
vt 0.700000 0.772731
vt 0.700000 0.772731
vt 0.700000 0.924167
vt 0.900000 0.772731
vt 0.900000 0.924167
vt 0.900000 0.924167
vt 0.900000 0.772731
vt 1.000000 0.924167
vt 0.900000 0.924167
vt 1.000000 0.924167
vt 1.000000 0.550659
vt 1.000000 0.559599
vt 0.900000 0.559599
vt 0.900000 0.550659
vt 0.800000 0.559599
vt 0.800000 0.550659
vt 0.700000 0.559599
vt 0.700000 0.550659
vt 0.600000 0.559599
vt 0.600000 0.550659
vt 0.500000 0.559599
vt 0.500000 0.550659
vt 0.400000 0.559599
vt 0.400000 0.550659
vt 0.300000 0.559599
vt 0.300000 0.550659
vt 0.200000 0.559599
vt 0.200000 0.550659
vt 0.100000 0.559599
vt 0.100000 0.550659
vt -0.000000 0.559599
vt -0.000000 0.550659
vt 1.000000 0.559599
vt 0.900000 0.559599
vt 0.800000 0.722252
vt 0.800000 0.559599
vt 0.800000 0.722252
vt 0.800000 0.722252
vt 0.800000 0.559599
vt 0.700000 0.722252
vt 0.700000 0.722252
vt 0.700000 0.559599
vt 0.600000 0.722252
vt 0.500000 0.722252
vt 0.500000 0.722252
vt 0.600000 0.722252
vt 0.500000 0.722252
vt 0.500000 0.559599
vt 0.300000 0.722252
vt 0.300000 0.559599
vt 0.300000 0.722252
vt 0.300000 0.722252
vt 0.300000 0.559599
vt 0.100000 0.722252
vt 0.100000 0.559599
vt 0.100000 0.722252
vt 0.100000 0.722252
vt 0.100000 0.559599
vt 1.000000 0.722252
vt 1.000000 0.772731
vt 0.900000 0.722252
vt 0.800000 0.772731
vt 0.600000 0.772731
vt 0.400000 0.722252
vt 0.200000 0.722252
vt 0.100000 0.772731
vt -0.000000 0.772731
vt -0.000000 0.722252
vt 0.300000 0.924167
vt 0.400000 0.924167
vt 0.600000 0.924167
vt 0.800000 0.924167
vt 0.100000 0.500000
vt -0.000000 0.500000
vt 0.200000 0.500000
vt 0.300000 0.500000
vt 0.400000 0.500000
vt 0.500000 0.500000
vt 0.600000 0.500000
vt 0.700000 0.500000
vt 0.800000 0.500000
vt 0.900000 0.500000
vt 1.000000 0.500000
vt 0.400000 0.772731
vt 0.400000 0.924167
vt 0.600000 0.772731
vt 0.600000 0.924167
vt 0.600000 0.772731
vt 0.600000 0.924167
vt 0.800000 0.924167
vt 0.800000 0.772731
vt 0.800000 0.924167
vt 0.800000 0.772731
vt 0.900000 0.772731
vt 1.000000 0.772731
vt -0.000000 0.924167
vt -0.000000 0.772731
vt 0.100000 0.772731
vt -0.000000 0.772731
vt 0.100000 0.924167
vt 0.100000 0.772731
vt 0.300000 0.772731
vt 0.300000 0.924167
vt 0.300000 0.924167
vt 0.400000 0.924167
vt 0.400000 0.722252
vt 0.400000 0.559599
vt 0.400000 0.559599
vt 0.400000 0.722252
vt 0.200000 0.559599
vt 0.200000 0.722252
vt 0.200000 0.722252
vt 0.200000 0.559599
vt -0.000000 0.559599
vt -0.000000 0.722252
vt 1.000000 0.559599
vt 1.000000 0.722252
vt 0.900000 0.722252
vt 1.000000 0.722252
vt 0.900000 0.722252
vt 0.900000 0.559599
vt 0.600000 0.559599
vt 0.600000 0.722252
vt 0.700000 0.559599
vt 0.700000 0.722252
vt 0.500000 0.559599
vt 0.600000 0.559599
vn 0.3090 0.0000 -0.9511
vn 0.8090 0.0000 -0.5878
vn 1.0000 0.0000 0.0000
vn 0.8090 0.0000 0.5878
vn 0.3090 0.0000 0.9511
vn -0.3090 0.0000 0.9511
vn -0.8090 0.0000 0.5878
vn -1.0000 0.0000 0.0000
vn -0.8090 0.0000 -0.5878
vn -0.3090 0.0000 -0.9511
vn 0.0000 -1.0000 0.0000
vn 0.0000 1.0000 0.0000
vn 0.5878 0.0000 -0.8090
vn 0.0000 0.0000 1.0000
vn -0.9511 0.0000 -0.3090
vn 0.9511 0.0000 -0.3090
vn -0.5878 0.0000 0.8090
vn 0.0000 0.0000 -1.0000
vn 0.5878 0.0000 0.8090
vn -0.5878 0.0000 -0.8090
vn 0.9511 0.0000 0.3090
vn -0.9511 0.0000 0.3090
vn -0.9510 0.0000 0.3090
usemtl Material.020
s off
f 101/1/1 24/2/1 23/3/1 102/4/1
f 102/4/2 23/3/2 26/5/2 103/6/2
f 103/6/3 26/5/3 28/7/3 104/8/3
f 104/8/4 28/7/4 30/9/4 105/10/4
f 105/10/5 30/9/5 32/11/5 106/12/5
f 106/12/6 32/11/6 34/13/6 107/14/6
f 107/14/7 34/13/7 36/15/7 108/16/7
f 108/16/8 36/15/8 38/17/8 109/18/8
f 2/19/5 20/20/5 50/21/5 42/22/5
f 109/18/9 38/17/9 40/23/9 110/24/9
f 110/24/10 40/23/10 24/25/10 101/26/10
f 13/27/2 15/28/2 58/29/2 57/30/2
f 3/31/11 1/32/11 21/33/11 22/34/11
f 2/19/12 4/35/12 23/36/12 24/37/12
f 5/38/11 3/31/11 22/34/11 25/39/11
f 4/35/12 6/40/12 26/41/12 23/36/12
f 7/42/11 5/38/11 25/39/11 27/43/11
f 6/40/12 8/44/12 28/45/12 26/41/12
f 9/46/11 7/42/11 27/43/11 29/47/11
f 8/44/12 10/48/12 30/49/12 28/45/12
f 11/50/11 9/46/11 29/47/11 31/51/11
f 10/48/12 12/52/12 32/53/12 30/49/12
f 13/27/11 11/50/11 31/51/11 33/54/11
f 12/52/12 14/55/12 34/56/12 32/53/12
f 15/28/11 13/27/11 33/54/11 35/57/11
f 14/55/12 16/58/12 36/59/12 34/56/12
f 17/60/11 15/28/11 35/57/11 37/61/11
f 16/58/12 18/62/12 38/63/12 36/59/12
f 19/64/11 17/60/11 37/61/11 39/65/11
f 18/62/12 20/20/12 40/66/12 38/63/12
f 1/32/11 19/64/11 39/65/11 21/33/11
f 20/20/12 2/19/12 24/37/12 40/66/12
f 12/52/10 10/48/10 45/67/10 46/68/10
f 16/58/2 14/55/2 47/69/2 48/70/2
f 6/40/7 4/35/7 41/71/7 43/72/7
f 20/20/4 18/62/4 49/73/4 50/21/4
f 10/48/9 8/44/9 44/74/9 45/67/9
f 14/55/1 12/52/1 46/68/1 47/69/1
f 4/35/6 2/19/6 42/22/6 41/71/6
f 18/62/3 16/58/3 48/70/3 49/73/3
f 8/44/8 6/40/8 43/72/8 44/74/8
f 3/31/7 5/38/7 53/75/7 52/76/7
f 17/60/4 19/64/4 60/77/4 59/78/4
f 7/42/9 9/46/9 55/79/9 54/80/9
f 11/50/1 13/27/1 57/30/1 56/81/1
f 1/32/6 3/31/6 52/76/6 51/82/6
f 15/28/3 17/60/3 59/78/3 58/29/3
f 5/38/8 7/42/8 54/80/8 53/75/8
f 19/64/5 1/32/5 51/82/5 60/77/5
f 9/46/10 11/50/10 56/81/10 55/79/10
f 70/83/11 61/84/11 146/85/11 147/86/11
f 99/87/13 69/88/13 149/89/13 151/90/13
f 69/88/14 99/87/14 156/91/14 154/92/14
f 98/93/12 97/94/12 159/95/12 160/96/12
f 96/97/15 66/98/15 121/99/15 123/100/15
f 66/98/16 96/97/16 128/101/16 126/102/16
f 94/103/17 64/104/17 129/105/17 131/106/17
f 64/104/18 94/103/18 136/107/18 134/108/18
f 92/109/19 62/110/19 137/111/19 139/112/19
f 61/113/11 62/110/11 143/114/11 142/115/11
f 120/116/1 80/117/1 71/118/1 111/119/1
f 111/119/2 71/118/2 72/120/2 112/121/2
f 112/121/3 72/120/3 73/122/3 113/123/3
f 113/123/4 73/122/4 74/124/4 114/125/4
f 114/125/5 74/124/5 75/126/5 115/127/5
f 115/127/6 75/126/6 76/128/6 116/129/6
f 116/129/7 76/128/7 77/130/7 117/131/7
f 117/131/8 77/130/8 78/132/8 118/133/8
f 118/133/9 78/132/9 79/134/9 119/135/9
f 119/135/10 79/134/10 80/136/10 120/137/10
f 71/118/12 80/117/12 183/138/12 182/139/12
f 83/140/20 72/120/20 188/141/20 187/142/20
f 72/120/14 83/140/14 193/143/14 194/144/14
f 73/122/17 84/145/17 189/146/17 190/147/17
f 85/148/11 86/149/11 199/150/11 197/151/11
f 75/126/15 86/149/15 165/152/15 166/153/15
f 88/154/19 77/130/19 164/155/19 163/156/19
f 77/130/18 88/154/18 169/157/18 170/158/18
f 90/159/17 79/134/17 176/160/17 175/161/17
f 79/134/16 90/159/16 177/162/16 178/163/16
f 81/164/1 91/165/1 92/109/1 82/166/1
f 82/166/2 92/109/2 93/167/2 83/140/2
f 83/140/3 93/167/3 94/103/3 84/145/3
f 84/145/4 94/103/4 95/168/4 85/148/4
f 85/148/5 95/168/5 96/97/5 86/149/5
f 86/149/6 96/97/6 97/94/6 87/169/6
f 87/169/7 97/94/7 98/93/7 88/154/7
f 88/154/8 98/93/8 99/87/8 89/170/8
f 89/170/9 99/87/9 100/171/9 90/159/9
f 90/159/10 100/171/10 91/172/10 81/173/10
f 70/83/10 110/24/10 101/26/10 61/84/10
f 69/88/9 109/18/9 110/24/9 70/83/9
f 68/174/8 108/16/8 109/18/8 69/88/8
f 67/175/7 107/14/7 108/16/7 68/174/7
f 66/98/6 106/12/6 107/14/6 67/175/6
f 65/176/5 105/10/5 106/12/5 66/98/5
f 64/104/4 104/8/4 105/10/4 65/176/4
f 63/177/3 103/6/3 104/8/3 64/104/3
f 62/110/2 102/4/2 103/6/2 63/177/2
f 61/113/1 101/1/1 102/4/1 62/110/1
f 39/178/10 119/135/10 120/137/10 21/179/10
f 37/180/9 118/133/9 119/135/9 39/178/9
f 35/181/8 117/131/8 118/133/8 37/180/8
f 33/182/7 116/129/7 117/131/7 35/181/7
f 31/183/6 115/127/6 116/129/6 33/182/6
f 29/184/5 114/125/5 115/127/5 31/183/5
f 27/185/4 113/123/4 114/125/4 29/184/4
f 25/186/3 112/121/3 113/123/3 27/185/3
f 22/187/2 111/119/2 112/121/2 25/186/2
f 21/188/1 120/116/1 111/119/1 22/187/1
f 67/175/21 97/94/21 124/189/21 122/190/21
f 97/94/12 96/97/12 123/100/12 124/189/12
f 66/98/11 67/175/11 122/190/11 121/99/11
f 96/97/12 95/168/12 127/191/12 128/101/12
f 65/176/11 66/98/11 126/102/11 125/192/11
f 95/168/22 65/176/22 125/192/22 127/191/22
f 65/176/13 95/168/13 132/193/13 130/194/13
f 95/168/12 94/103/12 131/106/12 132/193/12
f 64/104/11 65/176/11 130/194/11 129/105/11
f 63/177/11 64/104/11 134/108/11 133/195/11
f 94/103/12 93/167/12 135/196/12 136/107/12
f 93/167/14 63/177/14 133/195/14 135/196/14
f 62/110/11 63/177/11 138/197/11 137/111/11
f 63/177/20 93/167/20 140/198/20 138/197/20
f 93/167/12 92/109/12 139/112/12 140/198/12
f 62/110/15 92/109/15 144/199/15 143/114/15
f 92/109/12 91/165/12 141/200/12 144/199/12
f 91/172/21 61/84/21 142/201/21 141/202/21
f 91/172/12 100/171/12 148/203/12 145/204/12
f 61/84/22 91/172/22 145/204/22 146/85/22
f 100/171/16 70/83/16 147/86/16 148/203/16
f 69/88/11 70/83/11 150/205/11 149/89/11
f 70/83/17 100/171/17 152/206/17 150/205/17
f 100/171/12 99/87/12 151/90/12 152/206/12
f 99/87/12 98/93/12 155/207/12 156/91/12
f 68/174/11 69/88/11 154/92/11 153/208/11
f 98/93/18 68/174/18 153/208/18 155/207/18
f 67/175/11 68/174/11 158/209/11 157/210/11
f 97/94/20 67/175/20 157/210/20 159/95/20
f 68/174/19 98/93/19 160/96/19 158/209/19
f 76/128/20 87/169/20 161/211/20 162/212/20
f 77/130/12 76/128/12 162/212/12 164/155/12
f 87/169/11 88/154/11 163/156/11 161/211/11
f 76/128/12 75/126/12 166/153/12 168/213/12
f 86/149/11 87/169/11 167/214/11 165/152/11
f 87/169/21 76/128/21 168/213/21 167/214/21
f 78/132/12 77/130/12 170/158/12 172/215/12
f 88/154/11 89/170/11 171/216/11 169/157/11
f 89/170/14 78/132/14 172/215/14 171/216/14
f 78/132/13 89/170/13 173/217/13 174/218/13
f 79/134/12 78/132/12 174/218/12 176/160/12
f 89/170/11 90/159/11 175/161/11 173/217/11
f 80/136/12 79/134/12 178/163/12 179/219/12
f 90/159/11 81/173/11 180/220/11 177/162/11
f 81/164/23 80/117/23 179/221/23 180/222/23
f 81/164/11 82/166/11 181/223/11 184/224/11
f 82/166/15 71/118/15 182/139/15 181/223/15
f 80/117/21 81/164/21 184/224/21 183/138/21
f 71/118/19 82/166/19 185/225/19 186/226/19
f 72/120/12 71/118/12 186/226/12 188/141/12
f 82/166/11 83/140/11 187/142/11 185/225/11
f 74/124/12 73/122/12 190/147/12 192/227/12
f 84/145/11 85/148/11 191/228/11 189/146/11
f 85/148/13 74/124/13 192/227/13 191/228/13
f 73/122/12 72/120/12 194/144/12 196/229/12
f 83/140/11 84/145/11 195/230/11 193/143/11
f 84/145/18 73/122/18 196/229/18 195/230/18
f 86/149/16 75/126/16 200/231/16 199/150/16
f 74/124/22 85/148/22 197/151/22 198/232/22
f 75/126/12 74/124/12 198/232/12 200/231/12
usemtl Material.022
f 123/100/6 121/99/6 122/190/6 124/189/6
f 127/191/5 125/192/5 126/102/5 128/101/5
f 131/106/4 129/105/4 130/194/4 132/193/4
f 135/196/3 133/195/3 134/108/3 136/107/3
f 139/112/2 137/111/2 138/197/2 140/198/2
f 141/200/1 142/115/1 143/114/1 144/199/1
f 148/203/10 147/86/10 146/85/10 145/204/10
f 151/90/9 149/89/9 150/205/9 152/206/9
f 155/207/8 153/208/8 154/92/8 156/91/8
f 159/95/7 157/210/7 158/209/7 160/96/7
f 162/212/7 161/211/7 163/156/7 164/155/7
f 166/153/6 165/152/6 167/214/6 168/213/6
f 170/158/8 169/157/8 171/216/8 172/215/8
f 174/218/9 173/217/9 175/161/9 176/160/9
f 178/163/10 177/162/10 180/220/10 179/219/10
f 183/138/1 184/224/1 181/223/1 182/139/1
f 186/226/2 185/225/2 187/142/2 188/141/2
f 190/147/4 189/146/4 191/228/4 192/227/4
f 194/144/3 193/143/3 195/230/3 196/229/3
f 198/232/5 197/151/5 199/150/5 200/231/5
usemtl Material.023
f 41/71/12 42/22/12 50/21/12 49/73/12 48/70/12 47/69/12 46/68/12 45/67/12 44/74/12 43/72/12
f 51/82/11 52/76/11 53/75/11 54/80/11 55/79/11 56/81/11 57/30/11 58/29/11 59/78/11 60/77/11
